<svg xmlns="http://www.w3.org/2000/svg" width="1400" height="1400" viewBox="0 0 1400 1400">



  <svg xmlns="http://www.w3.org/2000/svg" width="1400" height="1400" viewBox="0 0 1400 1400">

    <style>
      .node circle,
      .node rect {
        fill: #fff;
        stroke-width: 1.5px;
      }

      .decade circle {
        fill: none;
        stroke: lightgrey;
        stroke-width: 0.5px;
      }

      .node {
        font: 10px sans-serif;
      }

      .decade {
        font: 8px sans-serif;
      }

      .title {
        font: 12px sans-serif;
      }

      .link {
        fill: none;
        stroke: #ccc;
        stroke-width: 1.5px;
      }
    </style>
    <svg width="1200" height="1200">
      <g transform="translate(600,600)">
        <path class="link"
          d="M0,0C0.9830918597172277,54.99121321079721 20.39302408938485,-51.0795905278201 40.7860481787697,-102.1591810556402">
        </path>
        <path class="link"
          d="M0,0C0.9830918597172277,54.99121321079721 30.798613237567753,-45.568030708411314 61.59722647513551,-91.13606141682263">
        </path>
        <path class="link"
          d="M0,0C0.9830918597172277,54.99121321079721 47.52865630359353,27.677189705150326 95.05731260718706,55.35437941030065">
        </path>
        <path class="link"
          d="M0,0C0.9830918597172277,54.99121321079721 23.87942197709019,49.54566788368144 47.75884395418038,99.09133576736288">
        </path>
        <path class="link"
          d="M0,0C0.9830918597172277,54.99121321079721 -7.95999325082413,54.42093813457127 -15.91998650164826,108.84187626914255">
        </path>
        <path class="link"
          d="M0,0C0.9830918597172277,54.99121321079721 -35.02800945154833,42.40328470604891 -70.05601890309666,84.80656941209782">
        </path>
        <path class="link"
          d="M0,0C0.9830918597172277,54.99121321079721 -51.93962252638741,18.090760399065314 -103.87924505277482,36.18152079813063">
        </path>
        <path class="link"
          d="M0,0C0.9830918597172277,54.99121321079721 -51.215141573830884,-20.050168916307396 -102.43028314766177,-40.10033783261479">
        </path>
        <path class="link"
          d="M0,0C0.9830918597172277,54.99121321079721 -22.20573526676657,-50.31804170734667 -44.41147053353314,-100.63608341469335">
        </path>
        <path class="link"
          d="M61.59722647513551,-91.13606141682263C92.39583971270326,-136.70409212523396 13.258138439943114,-164.4664761132411 17.677517919924153,-219.28863481765478">
        </path>
        <path class="link"
          d="M61.59722647513551,-91.13606141682263C92.39583971270326,-136.70409212523396 53.57541241877275,-156.05984488060474 71.43388322503034,-208.07979317413964">
        </path>
        <path class="link"
          d="M61.59722647513551,-91.13606141682263C92.39583971270326,-136.70409212523396 108.7343002877156,-124.10419791828514 144.97906705028748,-165.47226389104685">
        </path>
        <path class="link"
          d="M61.59722647513551,-91.13606141682263C92.39583971270326,-136.70409212523396 130.6597771402753,-100.76220838019375 174.21303618703377,-134.34961117359168">
        </path>
        <path class="link"
          d="M61.59722647513551,-91.13606141682263C92.39583971270326,-136.70409212523396 147.66325574295897,-73.62447217732363 196.88434099061195,-98.16596290309818">
        </path>
        <path class="link"
          d="M17.677517919924153,-219.28863481765478C22.096897399905192,-274.1107935220685 22.096897399905192,-274.1107935220685 26.516276879886227,-328.9329522264822">
        </path>
        <path class="link"
          d="M26.516276879886227,-328.9329522264822C30.935656359867266,-383.75511093089585 20.636134477126287,-384.4465501911052 23.58415368814433,-439.36748593269164">
        </path>
        <path class="link"
          d="M26.516276879886227,-328.9329522264822C30.935656359867266,-383.75511093089585 41.212938748108776,-382.78779196801014 47.10050142641003,-437.47176224915444">
        </path>
        <path class="link"
          d="M71.43388322503034,-208.07979317413964C89.29235403128791,-260.09974146767456 60.93648915780874,-268.1636520655256 73.12378698937049,-321.7963824786307">
        </path>
        <path class="link"
          d="M71.43388322503034,-208.07979317413964C89.29235403128791,-260.09974146767456 79.93853044954024,-263.12512489226094 95.9262365394483,-315.75014987071313">
        </path>
        <path class="link"
          d="M71.43388322503034,-208.07979317413964C89.29235403128791,-260.09974146767456 98.53206409753386,-256.74195672830626 118.23847691704064,-308.0903480739675">
        </path>
        <path class="link"
          d="M71.43388322503034,-208.07979317413964C89.29235403128791,-260.09974146767456 116.62207208511364,-249.04676729998837 139.94648650213637,-298.856120759986">
        </path>
        <path class="link"
          d="M95.9262365394483,-315.75014987071313C111.91394262935634,-368.3751748491653 111.91394262935634,-368.3751748491653 127.90164871926439,-421.0001998276175">
        </path>
        <path class="link"
          d="M144.97906705028748,-165.47226389104685C181.22383381285934,-206.84032986380856 150.92477719646604,-229.88412652507583 181.10973263575923,-275.860951830091">
        </path>
        <path class="link"
          d="M144.97906705028748,-165.47226389104685C181.22383381285934,-206.84032986380856 180.29769153593938,-207.64812165490747 216.35722984312724,-249.17774598588898">
        </path>
        <path class="link"
          d="M144.97906705028748,-165.47226389104685C181.22383381285934,-206.84032986380856 194.6714896582233,-194.23699728488458 233.60578758986796,-233.0843967418615">
        </path>
        <path class="link"
          d="M144.97906705028748,-165.47226389104685C181.22383381285934,-206.84032986380856 208.05046349369562,-179.83326900231341 249.66055619243474,-215.7999228027761">
        </path>
        <path class="link"
          d="M181.10973263575923,-275.860951830091C211.29468807505245,-321.8377771351062 202.59032861175476,-327.3868640507454 231.5318041277197,-374.1564160579947">
        </path>
        <path class="link"
          d="M181.10973263575923,-275.860951830091C211.29468807505245,-321.8377771351062 219.84714880381128,-316.05732259011955 251.25388434721287,-361.20836867442233">
        </path>
        <path class="link"
          d="M216.35722984312724,-249.17774598588898C252.4167681503151,-290.7073703168705 252.4167681503151,-290.7073703168705 288.476306457503,-332.23699464785193">
        </path>
        <path class="link"
          d="M196.88434099061195,-98.16596290309818C246.10542623826493,-122.70745362887271 231.55589072921637,-148.34712490843634 277.86706887505966,-178.01654989012363">
        </path>
        <path class="link"
          d="M196.88434099061195,-98.16596290309818C246.10542623826493,-122.70745362887271 241.56222499971557,-131.4256118615652 289.8746699996587,-157.7107342338782">
        </path>
        <path class="link"
          d="M196.88434099061195,-98.16596290309818C246.10542623826493,-122.70745362887271 250.33411056574417,-113.83247817410364 300.400932678893,-136.59897380892437">
        </path>
        <path class="link"
          d="M196.88434099061195,-98.16596290309818C246.10542623826493,-122.70745362887271 257.8267207050248,-95.65762954669708 309.39206484602977,-114.7891554560365">
        </path>
        <path class="link"
          d="M289.8746699996587,-157.7107342338782C338.1871149996018,-183.99585660619127 322.3090941310735,-210.57504087713437 368.35325043551256,-240.65718957386784">
        </path>
        <path class="link"
          d="M289.8746699996587,-157.7107342338782C338.1871149996018,-183.99585660619127 333.1326602466969,-192.99645249837832 380.72304028193935,-220.56737428386094">
        </path>
        <path class="link"
          d="M289.8746699996587,-157.7107342338782C338.1871149996018,-183.99585660619127 342.998448662839,-174.86298697805032 391.9982270432446,-199.84341368920036">
        </path>
        <path class="link"
          d="M289.8746699996587,-157.7107342338782C338.1871149996018,-183.99585660619127 351.87809460696207,-156.22677918901704 402.14639383652803,-178.54489050173376">
        </path>
        <path class="link"
          d="M95.05731260718706,55.35437941030065C142.5859689107806,83.03156911545098 164.65372025945595,-10.684212873245578 219.53829367927457,-14.245617164327436">
        </path>
        <path class="link"
          d="M95.05731260718706,55.35437941030065C142.5859689107806,83.03156911545098 147.99079598603228,72.96385614412505 197.32106131470968,97.28514152550005">
        </path>
        <path class="link"
          d="M95.05731260718706,55.35437941030065C142.5859689107806,83.03156911545098 106.49864115851672,126.0279311557144 141.99818821135563,168.03724154095255">
        </path>
        <path class="link"
          d="M95.05731260718706,55.35437941030065C142.5859689107806,83.03156911545098 71.97020411981346,148.47656286078413 95.96027215975128,197.9687504810455">
        </path>
        <path class="link"
          d="M219.53829367927457,-14.245617164327436C274.42286709909325,-17.807021455409295 268.8276907106137,-57.93679924882469 322.59322885273644,-69.52415909858962">
        </path>
        <path class="link"
          d="M219.53829367927457,-14.245617164327436C274.42286709909325,-17.807021455409295 274.6369287273325,-14.126477948098657 329.5643144727989,-16.95177353771839">
        </path>
        <path class="link"
          d="M219.53829367927457,-14.245617164327436C274.42286709909325,-17.807021455409295 274.0607355768342,22.709320004891453 328.8728826922011,27.251184005869746">
        </path>
        <path class="link"
          d="M322.59322885273644,-69.52415909858962C376.3587669948592,-81.11151894835457 371.4701334875049,-101.16787991638117 424.5372954142913,-115.62043419014991">
        </path>
        <path class="link"
          d="M322.59322885273644,-69.52415909858962C376.3587669948592,-81.11151894835457 376.3587669948592,-81.11151894835457 430.12430513698195,-92.69887879811951">
        </path>
        <path class="link"
          d="M322.59322885273644,-69.52415909858962C376.3587669948592,-81.11151894835457 380.16534498185405,-60.82195717689358 434.4746799792618,-69.51080820216409">
        </path>
        <path class="link"
          d="M329.5643144727989,-16.95177353771839C384.4917002182654,-19.77706912733812 384.4917002182654,-19.77706912733812 439.4190859637319,-22.60236471695785">
        </path>
        <path class="link"
          d="M328.8728826922011,27.251184005869746C383.6850298075679,31.793048006848036 384.39948076659226,21.49509679843923 439.31369230467686,24.56582491250198">
        </path>
        <path class="link"
          d="M328.8728826922011,27.251184005869746C383.6850298075679,31.793048006848036 382.6947495268495,42.0681433460279 437.3654280306851,48.07787810974617">
        </path>
        <path class="link"
          d="M197.32106131470968,97.28514152550005C246.6513266433871,121.60642690687507 265.01023069648556,73.44778843638176 318.0122768357827,88.13734612365812">
        </path>
        <path class="link"
          d="M197.32106131470968,97.28514152550005C246.6513266433871,121.60642690687507 246.6513266433871,121.60642690687507 295.98159197206456,145.9277122882501">
        </path>
        <path class="link"
          d="M197.32106131470968,97.28514152550005C246.6513266433871,121.60642690687507 219.62887402142428,165.4936787194041 263.55464882570914,198.5924144632849">
        </path>
        <path class="link"
          d="M318.0122768357827,88.13734612365812C371.0143229750798,102.82690381093447 375.9925359848491,82.79258954569522 429.70575541125606,94.6201023379374">
        </path>
        <path class="link"
          d="M318.0122768357827,88.13734612365812C371.0143229750798,102.82690381093447 371.0143229750798,102.82690381093447 424.0163691143769,117.51646149821082">
        </path>
        <path class="link"
          d="M318.0122768357827,88.13734612365812C371.0143229750798,102.82690381093447 364.969420063244,122.56558415272752 417.10790864370745,140.0749533174029">
        </path>
        <path class="link"
          d="M295.98159197206456,145.9277122882501C345.31185730074196,170.2489976696251 349.7520792975113,160.93005631971735 399.7166620542986,183.92006436539128">
        </path>
        <path class="link"
          d="M295.98159197206456,145.9277122882501C345.31185730074196,170.2489976696251 340.6233922713477,179.445547834321 389.2838768815402,205.08062609636684">
        </path>
        <path class="link"
          d="M263.55464882570914,198.5924144632849C307.480423629994,231.69115020716575 319.45713726931393,214.87702866452412 365.0938711649302,245.57374704517042">
        </path>
        <path class="link"
          d="M263.55464882570914,198.5924144632849C307.480423629994,231.69115020716575 307.480423629994,231.69115020716575 351.40619843427885,264.78988595104653">
        </path>
        <path class="link"
          d="M263.55464882570914,198.5924144632849C307.480423629994,231.69115020716575 294.6196841117288,247.83914487809454 336.7082104134044,283.2447370035366">
        </path>
        <path class="link"
          d="M141.99818821135563,168.03724154095255C177.49773526419452,210.04655192619066 184.89202779329744,203.56801826043923 221.87043335195693,244.2816219125271">
        </path>
        <path class="link"
          d="M141.99818821135563,168.03724154095255C177.49773526419452,210.04655192619066 169.8766048296032,216.25665106897137 203.85192579552384,259.5079812827656">
        </path>
        <path class="link"
          d="M221.87043335195693,244.2816219125271C258.84883891061645,284.99522556461494 266.3964645563553,277.9530961724919 304.45310235012033,317.66068133999073">
        </path>
        <path class="link"
          d="M221.87043335195693,244.2816219125271C258.84883891061645,284.99522556461494 251.1151280801264,291.83247326043363 286.98871780585876,333.52282658335275">
        </path>
        <path class="link"
          d="M95.96027215975128,197.9687504810455C119.9503401996891,247.46093810130688 137.3225810727453,238.25933082991585 164.78709728729433,285.91119699589905">
        </path>
        <path class="link"
          d="M95.96027215975128,197.9687504810455C119.9503401996891,247.46093810130688 119.9503401996891,247.46093810130688 143.94040823962692,296.95312572156826">
        </path>
        <path class="link"
          d="M95.96027215975128,197.9687504810455C119.9503401996891,247.46093810130688 101.96512044692423,255.3979526391005 122.35814453630908,306.4775431669206">
        </path>
        <path class="link"
          d="M164.78709728729433,285.91119699589905C192.2516135018434,333.5630631618822 192.2516135018434,333.5630631618822 219.71612971639246,381.2149293278654">
        </path>
        <path class="link"
          d="M-15.91998650164826,108.84187626914255C-23.87997975247239,163.26281440371383 27.158107396321107,162.7496150614492 36.210809861761476,216.9994867485989">
        </path>
        <path class="link"
          d="M-15.91998650164826,108.84187626914255C-23.87997975247239,163.26281440371383 -19.860398795001238,163.8003802184339 -26.48053172666832,218.4005069579119">
        </path>
        <path class="link"
          d="M-15.91998650164826,108.84187626914255C-23.87997975247239,163.26281440371383 -72.63300088078844,148.15345822170804 -96.84400117438459,197.5379442956107">
        </path>
        <path class="link"
          d="M36.210809861761476,216.9994867485989C45.263512327201845,271.24935843574866 64.52604457781159,267.32263198454086 77.4312534933739,320.78715838144905">
        </path>
        <path class="link"
          d="M36.210809861761476,216.9994867485989C45.263512327201845,271.24935843574866 45.263512327201845,271.24935843574866 54.316214792642214,325.4992301228984">
        </path>
        <path class="link"
          d="M36.210809861761476,216.9994867485989C45.263512327201845,271.24935843574866 25.769671211341578,273.7899268520655 30.923605453609895,328.54791222247854">
        </path>
        <path class="link"
          d="M-26.48053172666832,218.4005069579119C-33.1006646583354,273.00063369738984 -13.512789312903879,274.6678075876113 -16.215347175484656,329.6013691051336">
        </path>
        <path class="link"
          d="M-26.48053172666832,218.4005069579119C-33.1006646583354,273.00063369738984 -33.1006646583354,273.00063369738984 -39.720797590002476,327.6007604368678">
        </path>
        <path class="link"
          d="M-26.48053172666832,218.4005069579119C-33.1006646583354,273.00063369738984 -52.51938659989905,269.9383522791275 -63.02326391987886,323.926022734953">
        </path>
        <path class="link"
          d="M-39.720797590002476,327.6007604368678C-46.34093052166956,382.20088717634576 -15.480347082754069,384.688651839637 -17.69182523743322,439.64417353101373">
        </path>
        <path class="link"
          d="M-39.720797590002476,327.6007604368678C-46.34093052166956,382.20088717634576 -36.077539695877824,383.3058975928917 -41.23147393814609,438.0638829633048">
        </path>
        <path class="link"
          d="M-39.720797590002476,327.6007604368678C-46.34093052166956,382.20088717634576 -56.57100707549468,380.82111438110195 -64.65257951485106,435.22413072125937">
        </path>
        <path class="link"
          d="M-39.720797590002476,327.6007604368678C-46.34093052166956,382.20088717634576 -76.90182919248839,377.2414461148845 -87.8878047914153,431.13308127415377">
        </path>
        <path class="link"
          d="M-96.84400117438459,197.5379442956107C-121.05500146798073,246.9224303695134 -90.4538019953264,259.69811263193714 -108.54456239439168,311.6377351583245">
        </path>
        <path class="link"
          d="M-96.84400117438459,197.5379442956107C-121.05500146798073,246.9224303695134 -124.3543921177116,245.27736373549524 -149.22527054125393,294.3328364825943">
        </path>
        <path class="link"
          d="M-96.84400117438459,197.5379442956107C-121.05500146798073,246.9224303695134 -149.89595882647163,230.55628711334836 -179.87515059176596,276.66754453601806">
        </path>
        <path class="link"
          d="M-108.54456239439168,311.6377351583245C-126.63532279345695,363.57735768471196 -116.84236365421916,366.8417397948265 -133.53412989053618,419.2477026226589">
        </path>
        <path class="link"
          d="M-108.54456239439168,311.6377351583245C-126.63532279345695,363.57735768471196 -136.3372444084888,360.05160156163726 -155.8139936097015,411.4875446418711">
        </path>
        <path class="link"
          d="M-149.22527054125393,294.3328364825943C-174.09614896479624,343.38830922969333 -174.09614896479624,343.38830922969333 -198.96702738833858,392.44378197679237">
        </path>
        <path class="link"
          d="M-179.87515059176596,276.66754453601806C-209.8543423570603,322.7788019586877 -209.8543423570603,322.7788019586877 -239.8335341223546,368.8900593813574">
        </path>
        <path class="link"
          d="M-103.87924505277482,36.18152079813063C-155.81886757916223,54.27228119719594 -131.33227146288488,99.88410520397684 -175.10969528384652,133.1788069386358">
        </path>
        <path class="link"
          d="M-103.87924505277482,36.18152079813063C-155.81886757916223,54.27228119719594 -147.8273948878491,73.29434712630929 -197.1031931837988,97.72579616841239">
        </path>
        <path class="link"
          d="M-103.87924505277482,36.18152079813063C-155.81886757916223,54.27228119719594 -159.00613841789132,44.06867306182911 -212.00818455718843,58.758230749105486">
        </path>
        <path class="link"
          d="M-103.87924505277482,36.18152079813063C-155.81886757916223,54.27228119719594 -164.96663789571434,3.317888090979503 -219.9555171942858,4.423850787972671">
        </path>
        <path class="link"
          d="M-175.10969528384652,133.1788069386358C-218.88711910480814,166.47350867329476 -181.22383381285934,206.8403298638086 -217.4686005754312,248.2083958365703">
        </path>
        <path class="link"
          d="M-175.10969528384652,133.1788069386358C-218.88711910480814,166.47350867329476 -195.5375564754172,193.36510545499937 -234.64506777050065,232.03812654599923">
        </path>
        <path class="link"
          d="M-175.10969528384652,133.1788069386358C-218.88711910480814,166.47350867329476 -228.18366947808136,153.48359190323154 -273.8204033736976,184.18031028387784">
        </path>
        <path class="link"
          d="M-175.10969528384652,133.1788069386358C-218.88711910480814,166.47350867329476 -238.565571944193,136.78986761796386 -286.2786863330316,164.14784114155663">
        </path>
        <path class="link"
          d="M-175.10969528384652,133.1788069386358C-218.88711910480814,166.47350867329476 -247.72833941840722,119.39710988545085 -297.27400730208865,143.27653186254102">
        </path>
        <path class="link"
          d="M-234.64506777050065,232.03812654599923C-273.7525790655841,270.7111476369991 -251.11512808012623,291.83247326043374 -286.9887178058585,333.52282658335287">
        </path>
        <path class="link"
          d="M-234.64506777050065,232.03812654599923C-273.7525790655841,270.7111476369991 -266.3964645563552,277.95309617249194 -304.4531023501203,317.6606813399908">
        </path>
        <path class="link"
          d="M-234.64506777050065,232.03812654599923C-273.7525790655841,270.7111476369991 -280.9118941629792,263.27458616009096 -321.0421647576905,300.88524132581824">
        </path>
        <path class="link"
          d="M-234.64506777050065,232.03812654599923C-273.7525790655841,270.7111476369991 -294.6196841117288,247.83914487809457 -336.70821041340434,283.24473700353667">
        </path>
        <path class="link"
          d="M-273.8204033736976,184.18031028387784C-319.45713726931393,214.87702866452415 -319.45713726931393,214.87702866452415 -365.0938711649302,245.57374704517048">
        </path>
        <path class="link"
          d="M-297.27400730208865,143.27653186254102C-346.8196751857701,167.1559538396312 -346.8196751857701,167.1559538396312 -396.36534306945157,191.03537581672134">
        </path>
        <path class="link"
          d="M-212.00818455718843,58.758230749105486C-265.01023069648556,73.44778843638186 -262.21564184650504,82.8731390199828 -314.65877021580604,99.44776682397936">
        </path>
        <path class="link"
          d="M-212.00818455718843,58.758230749105486C-265.01023069648556,73.44778843638186 -267.466142742648,63.92857331717525 -320.9593712911776,76.7142879806103">
        </path>
        <path class="link"
          d="M-219.9555171942858,4.423850787972671C-274.94439649285727,5.529813484965838 -273.8468235735131,25.157846066330507 -328.6161882882157,30.189415279596606">
        </path>
        <path class="link"
          d="M-219.9555171942858,4.423850787972671C-274.94439649285727,5.529813484965838 -274.94439649285727,5.529813484966082 -329.9332757914287,6.635776181959299">
        </path>
        <path class="link"
          d="M-219.9555171942858,4.423850787972671C-274.94439649285727,5.529813484965838 -274.6369287273325,-14.12647794809838 -329.5643144727989,-16.951773537718054">
        </path>
        <path class="link"
          d="M-102.43028314766177,-40.10033783261479C-153.64542472149265,-60.15050674892219 -161.89219693694398,-31.87344617279016 -215.85626258259194,-42.49792823038688">
        </path>
        <path class="link"
          d="M-102.43028314766177,-40.10033783261479C-153.64542472149265,-60.15050674892219 -157.55002134424078,-49.020309815721006 -210.06669512565438,-65.36041308762802">
        </path>
        <path class="link"
          d="M-102.43028314766177,-40.10033783261479C-153.64542472149265,-60.15050674892219 -150.20046633944656,-68.29948690446203 -200.2672884525954,-91.0659825392827">
        </path>
        <path class="link"
          d="M-102.43028314766177,-40.10033783261479C-153.64542472149265,-60.15050674892219 -140.5023077259965,-86.510701786943 -187.33641030132867,-115.34760238259068">
        </path>
        <path class="link"
          d="M-210.06669512565438,-65.36041308762802C-262.58336890706795,-81.70051635953502 -265.335809633932,-72.26277136884377 -318.4029715607184,-86.71532564261253">
        </path>
        <path class="link"
          d="M-210.06669512565438,-65.36041308762802C-262.58336890706795,-81.70051635953502 -259.4953528483253,-91.03385002362121 -311.39442341799037,-109.24062002834545">
        </path>
        <path class="link"
          d="M-187.33641030132867,-115.34760238259068C-234.1705128766608,-144.18450297823833 -243.8727866875161,-127.08683611320753 -292.6473440250193,-152.504203335849">
        </path>
        <path class="link"
          d="M-187.33641030132867,-115.34760238259068C-234.1705128766608,-144.18450297823833 -234.1705128766608,-144.18450297823833 -281.004615451993,-173.021403573886">
        </path>
        <path class="link"
          d="M-187.33641030132867,-115.34760238259068C-234.1705128766608,-144.18450297823833 -223.27156402174083,-160.54534779708092 -267.925876826089,-192.65441735649713">
        </path>
        <path class="link"
          d="M-44.41147053353314,-100.63608341469335C-66.61720580029971,-150.95412512204 -109.28781417835287,-123.61704442397016 -145.71708557113718,-164.82272589862689">
        </path>
        <path class="link"
          d="M-44.41147053353314,-100.63608341469335C-66.61720580029971,-150.95412512204 -79.17902068750546,-144.76077743286535 -105.57202758334061,-193.01436991048715">
        </path>
        <path class="link"
          d="M-44.41147053353314,-100.63608341469335C-66.61720580029971,-150.95412512204 -52.17847902095398,-156.5324449660832 -69.57130536127197,-208.70992662144425">
        </path>
        <path class="link"
          d="M-44.41147053353314,-100.63608341469335C-66.61720580029971,-150.95412512204 -17.662688034904036,-164.0519108434329 -23.550250713205383,-218.73588112457722">
        </path>
        <path class="link"
          d="M-145.71708557113718,-164.82272589862689C-182.14635696392148,-206.0284073732836 -198.11225826810102,-190.7263304421108 -237.73470992172122,-228.87159653053294">
        </path>
        <path class="link"
          d="M-145.71708557113718,-164.82272589862689C-182.14635696392148,-206.0284073732836 -165.00252314669524,-219.9981076173709 -198.00302777603426,-263.9977291408451">
        </path>
        <path class="link"
          d="M-237.73470992172122,-228.87159653053294C-277.3571615753414,-267.0168626189551 -291.2706488911743,-251.76657660323838 -332.88074158991344,-287.733230403701">
        </path>
        <path class="link"
          d="M-237.73470992172122,-228.87159653053294C-277.3571615753414,-267.0168626189551 -277.3571615753414,-267.0168626189551 -316.9796132289616,-305.16212870737724">
        </path>
        <path class="link"
          d="M-237.73470992172122,-228.87159653053294C-277.3571615753414,-267.0168626189551 -262.64625468512173,-281.4994580809671 -300.1671482115677,-321.7136663782481">
        </path>
        <path class="link"
          d="M-198.00302777603426,-263.9977291408451C-231.0035324053733,-307.99735066431924 -231.0035324053733,-307.99735066431924 -264.0040370347124,-351.9969721877934">
        </path>
        <path class="link"
          d="M-105.57202758334061,-193.01436991048715C-131.96503447917576,-241.26796238810894 -131.96503447917576,-241.26796238810894 -158.3580413750109,-289.5215548657307">
        </path>
        <path class="link"
          d="M-69.57130536127197,-208.70992662144425C-86.96413170158996,-260.88740827680533 -96.23348311502737,-257.61233807321753 -115.48017973803285,-309.13480568786105">
        </path>
        <path class="link"
          d="M-69.57130536127197,-208.70992662144425C-86.96413170158996,-260.88740827680533 -77.5836421856948,-263.8290705460679 -93.10037062283375,-316.59488465528153">
        </path>
        <path class="link"
          d="M-23.550250713205383,-218.73588112457722C-29.437813391506726,-273.4198514057215 -39.191871605164295,-272.1929411283186 -47.03024592619715,-326.63152935398233">
        </path>
        <path class="link"
          d="M-23.550250713205383,-218.73588112457722C-29.437813391506726,-273.4198514057215 -19.646134348929152,-274.29733758303934 -23.575361218714985,-329.15680509964716">
        </path>
        <g class="decade">
          <circle r="0"></circle><text dy=".31em" transform="translate(-10,-0)">1</text>
        </g>
        <g class="decade">
          <circle r="110"></circle><text dy=".31em" transform="translate(-10,-110)">2</text>
        </g>
        <g class="decade">
          <circle r="220"></circle><text dy=".31em" transform="translate(-10,-220)">3</text>
        </g>
        <g class="decade">
          <circle r="330"></circle><text dy=".31em" transform="translate(-10,-330)">4</text>
        </g>
        <g class="decade">
          <circle r="440"></circle><text dy=".31em" transform="translate(-10,-440)">5</text>
        </g><text class="title" transform="translate(-50,20)"></text>
        <g class="node" transform="rotate(88.97581792318633)translate(0)">
          <circle r="4.5" stroke="#1f77b4"></circle><text dy=".31em" text-anchor="start" transform="translate(8)">
            <tspan x="0" dy="0em">André &amp; Agnès</tspan>
            <tspan x="0" dy="1.2em">Fauchille</tspan>
          </text>
        </g>
        <g class="node" transform="rotate(-68.2361308677098)translate(110)">
          <circle r="4.5" stroke="#ff7f0e"></circle><text dy=".31em" text-anchor="start" transform="translate(8)">
            <tspan x="0" dy="0em">André</tspan>
          </text>
        </g>
        <g class="node" transform="rotate(-55.94594594594594)translate(110)">
          <circle r="4.5" stroke="#ff7f0e"></circle><text dy=".31em" text-anchor="start" transform="translate(8)">
            <tspan x="0" dy="0em">Jannick &amp; Jacques</tspan>
            <tspan x="0" dy="1.2em">Bricout</tspan>
          </text>
        </g>
        <g class="node" transform="rotate(-85.39118065433856)translate(220)">
          <circle r="4.5" stroke="#2ca02c"></circle><text dy=".31em" text-anchor="start" transform="translate(8)">
            <tspan x="0" dy="0em">Pascale &amp; Laurent</tspan>
          </text>
        </g>
        <g class="node" transform="rotate(-85.39118065433856)translate(330)">
          <circle r="4.5" stroke="#d62728"></circle><text dy=".31em" text-anchor="start" transform="translate(8)">
            <tspan x="0" dy="0em">Perrine &amp; Lakesh</tspan>
          </text>
        </g>
        <g class="node" transform="rotate(-86.92745376955904)translate(440)">
          <circle r="4.5" stroke="#9467bd"></circle><text dy=".31em" text-anchor="start" transform="translate(8)">
            <tspan x="0" dy="0em">Louis</tspan>
          </text>
        </g>
        <g class="node" transform="rotate(-83.85490753911806)translate(440)">
          <circle r="4.5" stroke="#9467bd"></circle><text dy=".31em" text-anchor="start" transform="translate(8)">
            <tspan x="0" dy="0em">Gabriel</tspan>
          </text>
        </g>
        <g class="node" transform="rotate(-71.05263157894737)translate(220)">
          <circle r="4.5" stroke="#2ca02c"></circle><text dy=".31em" text-anchor="start" transform="translate(8)">
            <tspan x="0" dy="0em">Dominique &amp; Pierre</tspan>
          </text>
        </g>
        <g class="node" transform="rotate(-77.19772403982931)translate(330)">
          <circle r="4.5" stroke="#d62728"></circle><text dy=".31em" text-anchor="start" transform="translate(8)">
            <tspan x="0" dy="0em">Guillaume</tspan>
          </text>
        </g>
        <g class="node" transform="rotate(-73.10099573257469)translate(330)">
          <circle r="4.5" stroke="#d62728"></circle><text dy=".31em" text-anchor="start" transform="translate(8)">
            <tspan x="0" dy="0em">Alexis &amp; Patience</tspan>
          </text>
        </g>
        <g class="node" transform="rotate(-73.10099573257469)translate(440)">
          <circle r="4.5" stroke="#9467bd"></circle><text dy=".31em" text-anchor="start" transform="translate(8)">
            <tspan x="0" dy="0em">Basile</tspan>
          </text>
        </g>
        <g class="node" transform="rotate(-69.00426742532008)translate(330)">
          <circle r="4.5" stroke="#d62728"></circle><text dy=".31em" text-anchor="start" transform="translate(8)">
            <tspan x="0" dy="0em">Camille &amp; Olivier</tspan>
          </text>
        </g>
        <g class="node" transform="rotate(-64.90753911806544)translate(330)">
          <circle r="4.5" stroke="#d62728"></circle><text dy=".31em" text-anchor="start" transform="translate(8)">
            <tspan x="0" dy="0em">Dimitri</tspan>
          </text>
        </g>
        <g class="node" transform="rotate(-48.776671408250365)translate(220)">
          <circle r="4.5" stroke="#2ca02c"></circle><text dy=".31em" text-anchor="start" transform="translate(8)">
            <tspan x="0" dy="0em">Jacky &amp; Anne</tspan>
          </text>
        </g>
        <g class="node" transform="rotate(-56.714082503556206)translate(330)">
          <circle r="4.5" stroke="#d62728"></circle><text dy=".31em" text-anchor="start" transform="translate(8)">
            <tspan x="0" dy="0em">Lola &amp; Benjamin</tspan>
          </text>
        </g>
        <g class="node" transform="rotate(-58.25035561877669)translate(440)">
          <circle r="4.5" stroke="#9467bd"></circle><text dy=".31em" text-anchor="start" transform="translate(8)">
            <tspan x="0" dy="0em">Nello</tspan>
          </text>
        </g>
        <g class="node" transform="rotate(-55.17780938833572)translate(440)">
          <circle r="4.5" stroke="#9467bd"></circle><text dy=".31em" text-anchor="start" transform="translate(8)">
            <tspan x="0" dy="0em">Sanaa</tspan>
          </text>
        </g>
        <g class="node" transform="rotate(-49.032716927453784)translate(330)">
          <circle r="4.5" stroke="#d62728"></circle><text dy=".31em" text-anchor="start" transform="translate(8)">
            <tspan x="0" dy="0em">Alex</tspan>
          </text>
        </g>
        <g class="node" transform="rotate(-49.032716927453784)translate(440)">
          <circle r="4.5" stroke="#9467bd"></circle><text dy=".31em" text-anchor="start" transform="translate(8)">
            <tspan x="0" dy="0em">Mila</tspan>
          </text>
        </g>
        <g class="node" transform="rotate(-44.935988620199154)translate(330)">
          <circle r="4.5" stroke="#d62728"></circle><text dy=".31em" text-anchor="start" transform="translate(8)">
            <tspan x="0" dy="0em">Hugo</tspan>
          </text>
        </g>
        <g class="node" transform="rotate(-40.839260312944546)translate(330)">
          <circle r="4.5" stroke="#d62728"></circle><text dy=".31em" text-anchor="start" transform="translate(8)">
            <tspan x="0" dy="0em">Margot</tspan>
          </text>
        </g>
        <g class="node" transform="rotate(-37.638691322901835)translate(220)">
          <circle r="4.5" stroke="#2ca02c"></circle><text dy=".31em" text-anchor="start" transform="translate(8)">
            <tspan x="0" dy="0em">Arnaud</tspan>
          </text>
        </g>
        <g class="node" transform="rotate(-26.500711237553354)translate(220)">
          <circle r="4.5" stroke="#2ca02c"></circle><text dy=".31em" text-anchor="start" transform="translate(8)">
            <tspan x="0" dy="0em">Patrice &amp; Claire</tspan>
          </text>
        </g>
        <g class="node" transform="rotate(-32.64580369843529)translate(330)">
          <circle r="4.5" stroke="#d62728"></circle><text dy=".31em" text-anchor="start" transform="translate(8)">
            <tspan x="0" dy="0em">Gaspard &amp; Marie</tspan>
          </text>
        </g>
        <g class="node" transform="rotate(-28.549075391180658)translate(330)">
          <circle r="4.5" stroke="#d62728"></circle><text dy=".31em" text-anchor="start" transform="translate(8)">
            <tspan x="0" dy="0em">Marie &amp; Jean</tspan>
          </text>
        </g>
        <g class="node" transform="rotate(-33.15789473684211)translate(440)">
          <circle r="4.5" stroke="#9467bd"></circle><text dy=".31em" text-anchor="start" transform="translate(8)">
            <tspan x="0" dy="0em">Isaure</tspan>
          </text>
        </g>
        <g class="node" transform="rotate(-30.08534850640114)translate(440)">
          <circle r="4.5" stroke="#9467bd"></circle><text dy=".31em" text-anchor="start" transform="translate(8)">
            <tspan x="0" dy="0em">Eugène</tspan>
          </text>
        </g>
        <g class="node" transform="rotate(-27.01280227596017)translate(440)">
          <circle r="4.5" stroke="#9467bd"></circle><text dy=".31em" text-anchor="start" transform="translate(8)">
            <tspan x="0" dy="0em">Auguste</tspan>
          </text>
        </g>
        <g class="node" transform="rotate(-23.940256045519206)translate(440)">
          <circle r="4.5" stroke="#9467bd"></circle><text dy=".31em" text-anchor="start" transform="translate(8)">
            <tspan x="0" dy="0em">Lucien</tspan>
          </text>
        </g>
        <g class="node" transform="rotate(-24.452347083926043)translate(330)">
          <circle r="4.5" stroke="#d62728"></circle><text dy=".31em" text-anchor="start" transform="translate(8)">
            <tspan x="0" dy="0em">Pauline &amp; Martin</tspan>
          </text>
        </g>
        <g class="node" transform="rotate(-20.35561877667142)translate(330)">
          <circle r="4.5" stroke="#d62728"></circle><text dy=".31em" text-anchor="start" transform="translate(8)">
            <tspan x="0" dy="0em">Nicolas &amp; Emilie</tspan>
          </text>
        </g>
        <g class="node" transform="rotate(30.213371266002838)translate(110)">
          <circle r="4.5" stroke="#ff7f0e"></circle><text dy=".31em" text-anchor="start" transform="translate(8)">
            <tspan x="0" dy="0em">Francis &amp; Claudie</tspan>
            <tspan x="0" dy="1.2em">Fauchille </tspan>
          </text>
        </g>
        <g class="node" transform="rotate(-3.7126600284494913)translate(220)">
          <circle r="4.5" stroke="#2ca02c"></circle><text dy=".31em" text-anchor="start" transform="translate(8)">
            <tspan x="0" dy="0em">Véronique &amp;</tspan>
            <tspan x="0" dy="1.2em">Jean-Louis Brabant</tspan>
          </text>
        </g>
        <g class="node" transform="rotate(-12.162162162162161)translate(330)">
          <circle r="4.5" stroke="#d62728"></circle><text dy=".31em" text-anchor="start" transform="translate(8)">
            <tspan x="0" dy="0em">Augustin &amp; Olivia</tspan>
          </text>
        </g>
        <g class="node" transform="rotate(-15.234708392603125)translate(440)">
          <circle r="4.5" stroke="#9467bd"></circle><text dy=".31em" text-anchor="start" transform="translate(8)">
            <tspan x="0" dy="0em">Manon</tspan>
          </text>
        </g>
        <g class="node" transform="rotate(-12.162162162162161)translate(440)">
          <circle r="4.5" stroke="#9467bd"></circle><text dy=".31em" text-anchor="start" transform="translate(8)">
            <tspan x="0" dy="0em">Timothée</tspan>
          </text>
        </g>
        <g class="node" transform="rotate(-9.089615931721184)translate(440)">
          <circle r="4.5" stroke="#9467bd"></circle><text dy=".31em" text-anchor="start" transform="translate(8)">
            <tspan x="0" dy="0em">Jeanne</tspan>
          </text>
        </g>
        <g class="node" transform="rotate(-2.9445234708392576)translate(330)">
          <circle r="4.5" stroke="#d62728"></circle><text dy=".31em" text-anchor="start" transform="translate(8)">
            <tspan x="0" dy="0em">Alexandre &amp; Justine</tspan>
          </text>
        </g>
        <g class="node" transform="rotate(-2.9445234708392576)translate(440)">
          <circle r="4.5" stroke="#9467bd"></circle><text dy=".31em" text-anchor="start" transform="translate(8)">
            <tspan x="0" dy="0em">Basile</tspan>
          </text>
        </g>
        <g class="node" transform="rotate(4.736842105263165)translate(330)">
          <circle r="4.5" stroke="#d62728"></circle><text dy=".31em" text-anchor="start" transform="translate(8)">
            <tspan x="0" dy="0em">Adrien &amp; Juliette</tspan>
          </text>
        </g>
        <g class="node" transform="rotate(3.200568990042683)translate(440)">
          <circle r="4.5" stroke="#9467bd"></circle><text dy=".31em" text-anchor="start" transform="translate(8)">
            <tspan x="0" dy="0em">Joseph</tspan>
          </text>
        </g>
        <g class="node" transform="rotate(6.273115220483646)translate(440)">
          <circle r="4.5" stroke="#9467bd"></circle><text dy=".31em" text-anchor="start" transform="translate(8)">
            <tspan x="0" dy="0em">Igor</tspan>
          </text>
        </g>
        <g class="node" transform="rotate(26.244665718349935)translate(220)">
          <circle r="4.5" stroke="#2ca02c"></circle><text dy=".31em" text-anchor="start" transform="translate(8)">
            <tspan x="0" dy="0em">Caroline &amp; Manu</tspan>
            <tspan x="0" dy="1.2em">Toulemonde</tspan>
          </text>
        </g>
        <g class="node" transform="rotate(15.49075391180655)translate(330)">
          <circle r="4.5" stroke="#d62728"></circle><text dy=".31em" text-anchor="start" transform="translate(8)">
            <tspan x="0" dy="0em">Mathieu &amp; Constance</tspan>
          </text>
        </g>
        <g class="node" transform="rotate(12.418207681365587)translate(440)">
          <circle r="4.5" stroke="#9467bd"></circle><text dy=".31em" text-anchor="start" transform="translate(8)">
            <tspan x="0" dy="0em">Gustave</tspan>
          </text>
        </g>
        <g class="node" transform="rotate(15.49075391180655)translate(440)">
          <circle r="4.5" stroke="#9467bd"></circle><text dy=".31em" text-anchor="start" transform="translate(8)">
            <tspan x="0" dy="0em">Germain</tspan>
          </text>
        </g>
        <g class="node" transform="rotate(18.563300142247513)translate(440)">
          <circle r="4.5" stroke="#9467bd"></circle><text dy=".31em" text-anchor="start" transform="translate(8)">
            <tspan x="0" dy="0em">Max</tspan>
          </text>
        </g>
        <g class="node" transform="rotate(26.244665718349935)translate(330)">
          <circle r="4.5" stroke="#d62728"></circle><text dy=".31em" text-anchor="start" transform="translate(8)">
            <tspan x="0" dy="0em">Martin &amp; Anne</tspan>
          </text>
        </g>
        <g class="node" transform="rotate(24.708392603129454)translate(440)">
          <circle r="4.5" stroke="#9467bd"></circle><text dy=".31em" text-anchor="start" transform="translate(8)">
            <tspan x="0" dy="0em">Mailleul</tspan>
          </text>
        </g>
        <g class="node" transform="rotate(27.780938833570417)translate(440)">
          <circle r="4.5" stroke="#9467bd"></circle><text dy=".31em" text-anchor="start" transform="translate(8)">
            <tspan x="0" dy="0em">Brieu</tspan>
          </text>
        </g>
        <g class="node" transform="rotate(36.99857752489332)translate(330)">
          <circle r="4.5" stroke="#d62728"></circle><text dy=".31em" text-anchor="start" transform="translate(8)">
            <tspan x="0" dy="0em">Alix &amp; Maxence</tspan>
          </text>
        </g>
        <g class="node" transform="rotate(33.92603129445236)translate(440)">
          <circle r="4.5" stroke="#9467bd"></circle><text dy=".31em" text-anchor="start" transform="translate(8)">
            <tspan x="0" dy="0em">Maho</tspan>
          </text>
        </g>
        <g class="node" transform="rotate(36.99857752489332)translate(440)">
          <circle r="4.5" stroke="#9467bd"></circle><text dy=".31em" text-anchor="start" transform="translate(8)">
            <tspan x="0" dy="0em">Tom</tspan>
          </text>
        </g>
        <g class="node" transform="rotate(40.0711237553343)translate(440)">
          <circle r="4.5" stroke="#9467bd"></circle><text dy=".31em" text-anchor="start" transform="translate(8)">
            <tspan x="0" dy="0em">Bosco</tspan>
          </text>
        </g>
        <g class="node" transform="rotate(49.80085348506401)translate(220)">
          <circle r="4.5" stroke="#2ca02c"></circle><text dy=".31em" text-anchor="start" transform="translate(8)">
            <tspan x="0" dy="0em">André Eric &amp;</tspan>
            <tspan x="0" dy="1.2em">Nathalie</tspan>
          </text>
        </g>
        <g class="node" transform="rotate(47.75248933143669)translate(330)">
          <circle r="4.5" stroke="#d62728"></circle><text dy=".31em" text-anchor="start" transform="translate(8)">
            <tspan x="0" dy="0em">Lucie &amp; Tanguy</tspan>
          </text>
        </g>
        <g class="node" transform="rotate(46.216216216216225)translate(440)">
          <circle r="4.5" stroke="#9467bd"></circle><text dy=".31em" text-anchor="start" transform="translate(8)">
            <tspan x="0" dy="0em">Wladimir</tspan>
          </text>
        </g>
        <g class="node" transform="rotate(49.28876244665719)translate(440)">
          <circle r="4.5" stroke="#9467bd"></circle><text dy=".31em" text-anchor="start" transform="translate(8)">
            <tspan x="0" dy="0em">Victoria</tspan>
          </text>
        </g>
        <g class="node" transform="rotate(51.84921763869133)translate(330)">
          <circle r="4.5" stroke="#d62728"></circle><text dy=".31em" text-anchor="start" transform="translate(8)">
            <tspan x="0" dy="0em">Tom</tspan>
          </text>
        </g>
        <g class="node" transform="rotate(64.13940256045521)translate(220)">
          <circle r="4.5" stroke="#2ca02c"></circle><text dy=".31em" text-anchor="start" transform="translate(8)">
            <tspan x="0" dy="0em">Hugues &amp;</tspan>
            <tspan x="0" dy="1.2em">Constance</tspan>
          </text>
        </g>
        <g class="node" transform="rotate(60.04267425320057)translate(330)">
          <circle r="4.5" stroke="#d62728"></circle><text dy=".31em" text-anchor="start" transform="translate(8)">
            <tspan x="0" dy="0em">Stanislas &amp; Aliénor</tspan>
          </text>
        </g>
        <g class="node" transform="rotate(60.04267425320057)translate(440)">
          <circle r="4.5" stroke="#9467bd"></circle><text dy=".31em" text-anchor="start" transform="translate(8)">
            <tspan x="0" dy="0em">Alexis</tspan>
          </text>
        </g>
        <g class="node" transform="rotate(64.13940256045521)translate(330)">
          <circle r="4.5" stroke="#d62728"></circle><text dy=".31em" text-anchor="start" transform="translate(8)">
            <tspan x="0" dy="0em">Mariane &amp; Geoffroy</tspan>
          </text>
        </g>
        <g class="node" transform="rotate(68.23613086770982)translate(330)">
          <circle r="4.5" stroke="#d62728"></circle><text dy=".31em" text-anchor="start" transform="translate(8)">
            <tspan x="0" dy="0em">Agathe</tspan>
          </text>
        </g>
        <g class="node" transform="rotate(64.2674253200569)translate(110)">
          <circle r="4.5" stroke="#ff7f0e"></circle><text dy=".31em" text-anchor="start" transform="translate(8)">
            <tspan x="0" dy="0em">Marc</tspan>
          </text>
        </g>
        <g class="node" transform="rotate(98.32147937411094)translate(110)">
          <circle r="4.5" stroke="#ff7f0e"></circle><text dy=".31em" text-anchor="end"
            transform="rotate(180)translate(-8)">
            <tspan x="0" dy="0em">Nadine &amp; Manu</tspan>
            <tspan x="0" dy="1.2em">Watine</tspan>
          </text>
        </g>
        <g class="node" transform="rotate(80.52631578947367)translate(220)">
          <circle r="4.5" stroke="#2ca02c"></circle><text dy=".31em" text-anchor="start" transform="translate(8)">
            <tspan x="0" dy="0em">Emmanuel &amp; Pia</tspan>
          </text>
        </g>
        <g class="node" transform="rotate(76.42958748221906)translate(330)">
          <circle r="4.5" stroke="#d62728"></circle><text dy=".31em" text-anchor="start" transform="translate(8)">
            <tspan x="0" dy="0em">Félix</tspan>
          </text>
        </g>
        <g class="node" transform="rotate(80.52631578947367)translate(330)">
          <circle r="4.5" stroke="#d62728"></circle><text dy=".31em" text-anchor="start" transform="translate(8)">
            <tspan x="0" dy="0em">Léa</tspan>
          </text>
        </g>
        <g class="node" transform="rotate(84.62304409672828)translate(330)">
          <circle r="4.5" stroke="#d62728"></circle><text dy=".31em" text-anchor="start" transform="translate(8)">
            <tspan x="0" dy="0em">Rémi</tspan>
          </text>
        </g>
        <g class="node" transform="rotate(96.91322901849216)translate(220)">
          <circle r="4.5" stroke="#2ca02c"></circle><text dy=".31em" text-anchor="end"
            transform="rotate(180)translate(-8)">
            <tspan x="0" dy="0em">Thierry &amp; Murielle</tspan>
          </text>
        </g>
        <g class="node" transform="rotate(92.81650071123755)translate(330)">
          <circle r="4.5" stroke="#d62728"></circle><text dy=".31em" text-anchor="end"
            transform="rotate(180)translate(-8)">
            <tspan x="0" dy="0em">Mattias</tspan>
          </text>
        </g>
        <g class="node" transform="rotate(96.91322901849216)translate(330)">
          <circle r="4.5" stroke="#d62728"></circle><text dy=".31em" text-anchor="end"
            transform="rotate(180)translate(-8)">
            <tspan x="0" dy="0em">Gloria &amp; Thomas</tspan>
          </text>
        </g>
        <g class="node" transform="rotate(92.3044096728307)translate(440)">
          <circle r="4.5" stroke="#9467bd"></circle><text dy=".31em" text-anchor="end"
            transform="rotate(180)translate(-8)">
            <tspan x="0" dy="0em">Tao</tspan>
          </text>
        </g>
        <g class="node" transform="rotate(95.37695590327166)translate(440)">
          <circle r="4.5" stroke="#9467bd"></circle><text dy=".31em" text-anchor="end"
            transform="rotate(180)translate(-8)">
            <tspan x="0" dy="0em">Mia</tspan>
          </text>
        </g>
        <g class="node" transform="rotate(98.44950213371263)translate(440)">
          <circle r="4.5" stroke="#9467bd"></circle><text dy=".31em" text-anchor="end"
            transform="rotate(180)translate(-8)">
            <tspan x="0" dy="0em">Noha</tspan>
          </text>
        </g>
        <g class="node" transform="rotate(101.52204836415362)translate(440)">
          <circle r="4.5" stroke="#9467bd"></circle><text dy=".31em" text-anchor="end"
            transform="rotate(180)translate(-8)">
            <tspan x="0" dy="0em">Sacha</tspan>
          </text>
        </g>
        <g class="node" transform="rotate(101.0099573257468)translate(330)">
          <circle r="4.5" stroke="#d62728"></circle><text dy=".31em" text-anchor="end"
            transform="rotate(180)translate(-8)">
            <tspan x="0" dy="0em">Alexandra &amp; Matias</tspan>
          </text>
        </g>
        <g class="node" transform="rotate(116.1166429587482)translate(220)">
          <circle r="4.5" stroke="#2ca02c"></circle><text dy=".31em" text-anchor="end"
            transform="rotate(180)translate(-8)">
            <tspan x="0" dy="0em">Karine &amp; Pascal</tspan>
          </text>
        </g>
        <g class="node" transform="rotate(109.20341394025601)translate(330)">
          <circle r="4.5" stroke="#d62728"></circle><text dy=".31em" text-anchor="end"
            transform="rotate(180)translate(-8)">
            <tspan x="0" dy="0em">Arthur &amp; Aude</tspan>
          </text>
        </g>
        <g class="node" transform="rotate(107.66714082503555)translate(440)">
          <circle r="4.5" stroke="#9467bd"></circle><text dy=".31em" text-anchor="end"
            transform="rotate(180)translate(-8)">
            <tspan x="0" dy="0em">Jacques</tspan>
          </text>
        </g>
        <g class="node" transform="rotate(110.73968705547651)translate(440)">
          <circle r="4.5" stroke="#9467bd"></circle><text dy=".31em" text-anchor="end"
            transform="rotate(180)translate(-8)">
            <tspan x="0" dy="0em">un petit en août</tspan>
          </text>
        </g>
        <g class="node" transform="rotate(116.88477951635844)translate(330)">
          <circle r="4.5" stroke="#d62728"></circle><text dy=".31em" text-anchor="end"
            transform="rotate(180)translate(-8)">
            <tspan x="0" dy="0em">Louise &amp; Giacomo</tspan>
          </text>
        </g>
        <g class="node" transform="rotate(116.88477951635844)translate(440)">
          <circle r="4.5" stroke="#9467bd"></circle><text dy=".31em" text-anchor="end"
            transform="rotate(180)translate(-8)">
            <tspan x="0" dy="0em">une petite fille</tspan>
          </text>
        </g>
        <g class="node" transform="rotate(123.02987197724039)translate(330)">
          <circle r="4.5" stroke="#d62728"></circle><text dy=".31em" text-anchor="end"
            transform="rotate(180)translate(-8)">
            <tspan x="0" dy="0em">Théodore &amp; Eugénie</tspan>
          </text>
        </g>
        <g class="node" transform="rotate(123.02987197724039)translate(440)">
          <circle r="4.5" stroke="#9467bd"></circle><text dy=".31em" text-anchor="end"
            transform="rotate(180)translate(-8)">
            <tspan x="0" dy="0em">une petite fille en avril</tspan>
          </text>
        </g>
        <g class="node" transform="rotate(129.55903271692748)translate(110)">
          <circle r="4.5" stroke="#ff7f0e"></circle><text dy=".31em" text-anchor="end"
            transform="rotate(180)translate(-8)">
            <tspan x="0" dy="0em">Marie</tspan>
          </text>
        </g>
        <g class="node" transform="rotate(160.79658605974396)translate(110)">
          <circle r="4.5" stroke="#ff7f0e"></circle><text dy=".31em" text-anchor="end"
            transform="rotate(180)translate(-8)">
            <tspan x="0" dy="0em">Colette &amp; Francis</tspan>
            <tspan x="0" dy="1.2em">Demester</tspan>
          </text>
        </g>
        <g class="node" transform="rotate(142.74537695590325)translate(220)">
          <circle r="4.5" stroke="#2ca02c"></circle><text dy=".31em" text-anchor="end"
            transform="rotate(180)translate(-8)">
            <tspan x="0" dy="0em">Blandine &amp; Godefroy</tspan>
            <tspan x="0" dy="1.2em">de Noyelle</tspan>
          </text>
        </g>
        <g class="node" transform="rotate(131.22332859174963)translate(330)">
          <circle r="4.5" stroke="#d62728"></circle><text dy=".31em" text-anchor="end"
            transform="rotate(180)translate(-8)">
            <tspan x="0" dy="0em">Marion</tspan>
          </text>
        </g>
        <g class="node" transform="rotate(135.32005689900424)translate(330)">
          <circle r="4.5" stroke="#d62728"></circle><text dy=".31em" text-anchor="end"
            transform="rotate(180)translate(-8)">
            <tspan x="0" dy="0em">Quentin &amp; Elisabeth</tspan>
          </text>
        </g>
        <g class="node" transform="rotate(130.71123755334278)translate(440)">
          <circle r="4.5" stroke="#9467bd"></circle><text dy=".31em" text-anchor="end"
            transform="rotate(180)translate(-8)">
            <tspan x="0" dy="0em">Victoria</tspan>
          </text>
        </g>
        <g class="node" transform="rotate(133.78378378378378)translate(440)">
          <circle r="4.5" stroke="#9467bd"></circle><text dy=".31em" text-anchor="end"
            transform="rotate(180)translate(-8)">
            <tspan x="0" dy="0em">Nathanael</tspan>
          </text>
        </g>
        <g class="node" transform="rotate(136.85633001422474)translate(440)">
          <circle r="4.5" stroke="#9467bd"></circle><text dy=".31em" text-anchor="end"
            transform="rotate(180)translate(-8)">
            <tspan x="0" dy="0em">Céleste</tspan>
          </text>
        </g>
        <g class="node" transform="rotate(139.9288762446657)translate(440)">
          <circle r="4.5" stroke="#9467bd"></circle><text dy=".31em" text-anchor="end"
            transform="rotate(180)translate(-8)">
            <tspan x="0" dy="0em">Marius</tspan>
          </text>
        </g>
        <g class="node" transform="rotate(146.07396870554763)translate(330)">
          <circle r="4.5" stroke="#d62728"></circle><text dy=".31em" text-anchor="end"
            transform="rotate(180)translate(-8)">
            <tspan x="0" dy="0em">Aymeric &amp; Alexandra</tspan>
          </text>
        </g>
        <g class="node" transform="rotate(146.07396870554763)translate(440)">
          <circle r="4.5" stroke="#9467bd"></circle><text dy=".31em" text-anchor="end"
            transform="rotate(180)translate(-8)">
            <tspan x="0" dy="0em">Marin</tspan>
          </text>
        </g>
        <g class="node" transform="rotate(150.17069701280224)translate(330)">
          <circle r="4.5" stroke="#d62728"></circle><text dy=".31em" text-anchor="end"
            transform="rotate(180)translate(-8)">
            <tspan x="0" dy="0em">Solenne &amp; Adam</tspan>
          </text>
        </g>
        <g class="node" transform="rotate(154.2674253200569)translate(330)">
          <circle r="4.5" stroke="#d62728"></circle><text dy=".31em" text-anchor="end"
            transform="rotate(180)translate(-8)">
            <tspan x="0" dy="0em">Clémence &amp; Édouard</tspan>
          </text>
        </g>
        <g class="node" transform="rotate(154.2674253200569)translate(440)">
          <circle r="4.5" stroke="#9467bd"></circle><text dy=".31em" text-anchor="end"
            transform="rotate(180)translate(-8)">
            <tspan x="0" dy="0em">Brune</tspan>
          </text>
        </g>
        <g class="node" transform="rotate(153.62731152204833)translate(220)">
          <circle r="4.5" stroke="#2ca02c"></circle><text dy=".31em" text-anchor="end"
            transform="rotate(180)translate(-8)">
            <tspan x="0" dy="0em">Fanny &amp; Christophe</tspan>
          </text>
        </g>
        <g class="node" transform="rotate(164.50924608819344)translate(220)">
          <circle r="4.5" stroke="#2ca02c"></circle><text dy=".31em" text-anchor="end"
            transform="rotate(180)translate(-8)">
            <tspan x="0" dy="0em">Sophie &amp; Christophe</tspan>
            <tspan x="0" dy="1.2em">Cany</tspan>
          </text>
        </g>
        <g class="node" transform="rotate(162.46088193456612)translate(330)">
          <circle r="4.5" stroke="#d62728"></circle><text dy=".31em" text-anchor="end"
            transform="rotate(180)translate(-8)">
            <tspan x="0" dy="0em">Juliette</tspan>
          </text>
        </g>
        <g class="node" transform="rotate(166.55761024182073)translate(330)">
          <circle r="4.5" stroke="#d62728"></circle><text dy=".31em" text-anchor="end"
            transform="rotate(180)translate(-8)">
            <tspan x="0" dy="0em">Charlotte</tspan>
          </text>
        </g>
        <g class="node" transform="rotate(178.84779516358464)translate(220)">
          <circle r="4.5" stroke="#2ca02c"></circle><text dy=".31em" text-anchor="end"
            transform="rotate(180)translate(-8)">
            <tspan x="0" dy="0em">Séverine &amp; Fabien</tspan>
            <tspan x="0" dy="1.2em">Dupré</tspan>
          </text>
        </g>
        <g class="node" transform="rotate(174.75106685633)translate(330)">
          <circle r="4.5" stroke="#d62728"></circle><text dy=".31em" text-anchor="end"
            transform="rotate(180)translate(-8)">
            <tspan x="0" dy="0em">Cécile</tspan>
          </text>
        </g>
        <g class="node" transform="rotate(178.84779516358458)translate(330)">
          <circle r="4.5" stroke="#d62728"></circle><text dy=".31em" text-anchor="end"
            transform="rotate(180)translate(-8)">
            <tspan x="0" dy="0em">Anaïs</tspan>
          </text>
        </g>
        <g class="node" transform="rotate(182.94452347083921)translate(330)">
          <circle r="4.5" stroke="#d62728"></circle><text dy=".31em" text-anchor="end"
            transform="rotate(180)translate(-8)">
            <tspan x="0" dy="0em">Augustin</tspan>
          </text>
        </g>
        <g class="node" transform="rotate(201.379800853485)translate(110)">
          <circle r="4.5" stroke="#ff7f0e"></circle><text dy=".31em" text-anchor="end"
            transform="rotate(180)translate(-8)">
            <tspan x="0" dy="0em">Monique &amp; Antoine</tspan>
            <tspan x="0" dy="1.2em">Lecomte</tspan>
          </text>
        </g>
        <g class="node" transform="rotate(191.1379800853485)translate(220)">
          <circle r="4.5" stroke="#2ca02c"></circle><text dy=".31em" text-anchor="end"
            transform="rotate(180)translate(-8)">
            <tspan x="0" dy="0em">Franck</tspan>
          </text>
        </g>
        <g class="node" transform="rotate(197.28307254623041)translate(220)">
          <circle r="4.5" stroke="#2ca02c"></circle><text dy=".31em" text-anchor="end"
            transform="rotate(180)translate(-8)">
            <tspan x="0" dy="0em">Frédéric &amp; Katarzyna</tspan>
          </text>
        </g>
        <g class="node" transform="rotate(195.23470839260312)translate(330)">
          <circle r="4.5" stroke="#d62728"></circle><text dy=".31em" text-anchor="end"
            transform="rotate(180)translate(-8)">
            <tspan x="0" dy="0em">Esteban</tspan>
          </text>
        </g>
        <g class="node" transform="rotate(199.3314366998577)translate(330)">
          <circle r="4.5" stroke="#d62728"></circle><text dy=".31em" text-anchor="end"
            transform="rotate(180)translate(-8)">
            <tspan x="0" dy="0em">Alexis</tspan>
          </text>
        </g>
        <g class="node" transform="rotate(204.45234708392599)translate(220)">
          <circle r="4.5" stroke="#2ca02c"></circle><text dy=".31em" text-anchor="end"
            transform="rotate(180)translate(-8)">
            <tspan x="0" dy="0em">Nathalie &amp; Nigel</tspan>
          </text>
        </g>
        <g class="node" transform="rotate(211.62162162162156)translate(220)">
          <circle r="4.5" stroke="#2ca02c"></circle><text dy=".31em" text-anchor="end"
            transform="rotate(180)translate(-8)">
            <tspan x="0" dy="0em">Cyril &amp; Lucie</tspan>
          </text>
        </g>
        <g class="node" transform="rotate(207.52489331436698)translate(330)">
          <circle r="4.5" stroke="#d62728"></circle><text dy=".31em" text-anchor="end"
            transform="rotate(180)translate(-8)">
            <tspan x="0" dy="0em">Thibault</tspan>
          </text>
        </g>
        <g class="node" transform="rotate(211.62162162162156)translate(330)">
          <circle r="4.5" stroke="#d62728"></circle><text dy=".31em" text-anchor="end"
            transform="rotate(180)translate(-8)">
            <tspan x="0" dy="0em">Mattis</tspan>
          </text>
        </g>
        <g class="node" transform="rotate(215.71834992887625)translate(330)">
          <circle r="4.5" stroke="#d62728"></circle><text dy=".31em" text-anchor="end"
            transform="rotate(180)translate(-8)">
            <tspan x="0" dy="0em">Manon</tspan>
          </text>
        </g>
        <g class="node" transform="rotate(246.18776671408244)translate(110)">
          <circle r="4.5" stroke="#ff7f0e"></circle><text dy=".31em" text-anchor="end"
            transform="rotate(180)translate(-8)">
            <tspan x="0" dy="0em">Christine &amp; Wladimir</tspan>
            <tspan x="0" dy="1.2em">Narozniak</tspan>
          </text>
        </g>
        <g class="node" transform="rotate(228.52062588904693)translate(220)">
          <circle r="4.5" stroke="#2ca02c"></circle><text dy=".31em" text-anchor="end"
            transform="rotate(180)translate(-8)">
            <tspan x="0" dy="0em">Yuri &amp; Valerie</tspan>
          </text>
        </g>
        <g class="node" transform="rotate(223.91180654338547)translate(330)">
          <circle r="4.5" stroke="#d62728"></circle><text dy=".31em" text-anchor="end"
            transform="rotate(180)translate(-8)">
            <tspan x="0" dy="0em">Basile &amp; Clémence</tspan>
          </text>
        </g>
        <g class="node" transform="rotate(220.83926031294448)translate(440)">
          <circle r="4.5" stroke="#9467bd"></circle><text dy=".31em" text-anchor="end"
            transform="rotate(180)translate(-8)">
            <tspan x="0" dy="0em">Hélène</tspan>
          </text>
        </g>
        <g class="node" transform="rotate(223.91180654338547)translate(440)">
          <circle r="4.5" stroke="#9467bd"></circle><text dy=".31em" text-anchor="end"
            transform="rotate(180)translate(-8)">
            <tspan x="0" dy="0em">Adèle</tspan>
          </text>
        </g>
        <g class="node" transform="rotate(226.9843527738264)translate(440)">
          <circle r="4.5" stroke="#9467bd"></circle><text dy=".31em" text-anchor="end"
            transform="rotate(180)translate(-8)">
            <tspan x="0" dy="0em">+1</tspan>
          </text>
        </g>
        <g class="node" transform="rotate(233.12944523470833)translate(330)">
          <circle r="4.5" stroke="#d62728"></circle><text dy=".31em" text-anchor="end"
            transform="rotate(180)translate(-8)">
            <tspan x="0" dy="0em">Come &amp; Louise</tspan>
          </text>
        </g>
        <g class="node" transform="rotate(233.12944523470833)translate(440)">
          <circle r="4.5" stroke="#9467bd"></circle><text dy=".31em" text-anchor="end"
            transform="rotate(180)translate(-8)">
            <tspan x="0" dy="0em">Erik</tspan>
          </text>
        </g>
        <g class="node" transform="rotate(241.3229018492176)translate(220)">
          <circle r="4.5" stroke="#2ca02c"></circle><text dy=".31em" text-anchor="end"
            transform="rotate(180)translate(-8)">
            <tspan x="0" dy="0em">Damien &amp; Blandine</tspan>
          </text>
        </g>
        <g class="node" transform="rotate(241.3229018492176)translate(330)">
          <circle r="4.5" stroke="#d62728"></circle><text dy=".31em" text-anchor="end"
            transform="rotate(180)translate(-8)">
            <tspan x="0" dy="0em">Pauline</tspan>
          </text>
        </g>
        <g class="node" transform="rotate(251.56472261735416)translate(220)">
          <circle r="4.5" stroke="#2ca02c"></circle><text dy=".31em" text-anchor="end"
            transform="rotate(180)translate(-8)">
            <tspan x="0" dy="0em">Nicolas &amp; Carine</tspan>
          </text>
        </g>
        <g class="node" transform="rotate(249.51635846372687)translate(330)">
          <circle r="4.5" stroke="#d62728"></circle><text dy=".31em" text-anchor="end"
            transform="rotate(180)translate(-8)">
            <tspan x="0" dy="0em">Gaëtan &amp; Eva</tspan>
          </text>
        </g>
        <g class="node" transform="rotate(253.6130867709815)translate(330)">
          <circle r="4.5" stroke="#d62728"></circle><text dy=".31em" text-anchor="end"
            transform="rotate(180)translate(-8)">
            <tspan x="0" dy="0em">Anatole</tspan>
          </text>
        </g>
        <g class="node" transform="rotate(263.854907539118)translate(220)">
          <circle r="4.5" stroke="#2ca02c"></circle><text dy=".31em" text-anchor="end"
            transform="rotate(180)translate(-8)">
            <tspan x="0" dy="0em">Igor &amp; Shirley</tspan>
          </text>
        </g>
        <g class="node" transform="rotate(261.8065433854907)translate(330)">
          <circle r="4.5" stroke="#d62728"></circle><text dy=".31em" text-anchor="end"
            transform="rotate(180)translate(-8)">
            <tspan x="0" dy="0em">Chloe</tspan>
          </text>
        </g>
        <g class="node" transform="rotate(265.9032716927454)translate(330)">
          <circle r="4.5" stroke="#d62728"></circle><text dy=".31em" text-anchor="end"
            transform="rotate(180)translate(-8)">
            <tspan x="0" dy="0em">Charlotte</tspan>
          </text>
        </g>
      </g>
    </svg>
  </svg>

</svg>