<svg width="1400" height="1400"><g transform="translate(700,700)"><path class="link" d="M0,0C-11.861497004709264,74.0560928540473 49.5837006116056,-56.27127716391963 99.1674012232112,-112.54255432783926"></path><path class="link" d="M0,0C-11.861497004709264,74.0560928540473 55.728582461009935,50.192878945986116 111.45716492201987,100.38575789197223"></path><path class="link" d="M0,0C-11.861497004709264,74.0560928540473 33.28136551929432,67.21123945569764 66.56273103858864,134.42247891139527"></path><path class="link" d="M0,0C-11.861497004709264,74.0560928540473 6.139244602983445,74.74830884845983 12.27848920596689,149.49661769691966"></path><path class="link" d="M0,0C-11.861497004709264,74.0560928540473 -21.868921424092118,71.74085499732273 -43.737842848184236,143.48170999464546"></path><path class="link" d="M0,0C-11.861497004709264,74.0560928540473 -71.97449781238903,21.087239379643968 -143.94899562477806,42.174478759287936"></path><path class="link" d="M0,0C-11.861497004709264,74.0560928540473 -68.94257618113058,-29.528311660320274 -137.88515236226115,-59.05662332064055"></path><path class="link" d="M0,0C-11.861497004709264,74.0560928540473 -29.528311660320295,-68.94257618113058 -59.05662332064059,-137.88515236226115"></path><path class="link" d="M99.1674012232112,-112.54255432783926C148.7511018348168,-168.8138314917589 23.4539922490866,-223.77423946375015 31.271989665448796,-298.3656526183335"></path><path class="link" d="M99.1674012232112,-112.54255432783926C148.7511018348168,-168.8138314917589 61.85107944628431,-216.33179140230274 82.46810592837909,-288.44238853640366"></path><path class="link" d="M99.1674012232112,-112.54255432783926C148.7511018348168,-168.8138314917589 118.936487260274,-190.99505752292828 158.58198301369868,-254.66007669723768"></path><path class="link" d="M99.1674012232112,-112.54255432783926C148.7511018348168,-168.8138314917589 182.83108294869137,-131.1403641439535 243.77477726492185,-174.85381885860468"></path><path class="link" d="M99.1674012232112,-112.54255432783926C148.7511018348168,-168.8138314917589 204.85166352487315,-93.06339748307153 273.1355513664975,-124.08452997742872"></path><path class="link" d="M99.1674012232112,-112.54255432783926C148.7511018348168,-168.8138314917589 219.04332394468886,-51.42977965403019 292.05776525958515,-68.57303953870692"></path><path class="link" d="M31.271989665448796,-298.3656526183335C39.089987081810996,-372.9570657729169 39.089987081810996,-372.9570657729169 46.9079844981732,-447.5484789275003"></path><path class="link" d="M82.46810592837909,-288.44238853640366C103.08513241047385,-360.5529856705046 90.47440756800323,-363.92221912823464 108.56928908160387,-436.70666295388156"></path><path class="link" d="M82.46810592837909,-288.44238853640366C103.08513241047385,-360.5529856705046 115.57095867232134,-356.74690399716235 138.6851504067856,-428.09628479659483"></path><path class="link" d="M158.58198301369868,-254.66007669723768C198.22747876712333,-318.3250958715471 163.965373202972,-337.25414213973727 196.7584478435664,-404.70497056768477"></path><path class="link" d="M158.58198301369868,-254.66007669723768C198.22747876712333,-318.3250958715471 187.02876779029654,-325.0311369989702 224.43452134835584,-390.0373643987643"></path><path class="link" d="M158.58198301369868,-254.66007669723768C198.22747876712333,-318.3250958715471 209.18601611115207,-311.23337009958436 251.02321933338249,-373.4800441195012"></path><path class="link" d="M158.58198301369868,-254.66007669723768C198.22747876712333,-318.3250958715471 230.3297672586254,-295.92769102364764 276.3957207103505,-355.1132292283772"></path><path class="link" d="M224.43452134835584,-390.0373643987643C261.8402749064152,-455.04359179855834 261.8402749064152,-455.04359179855834 299.2460284644745,-520.0498191983523"></path><path class="link" d="M243.77477726492185,-174.85381885860468C304.7184715811523,-218.56727357325585 269.1724224750203,-261.0961642363387 323.0069069700244,-313.31539708360646"></path><path class="link" d="M243.77477726492185,-174.85381885860468C304.7184715811523,-218.56727357325585 306.60898475569746,-215.907226528156 367.93078170683697,-259.0886718337872"></path><path class="link" d="M243.77477726492185,-174.85381885860468C304.7184715811523,-218.56727357325585 320.88550542041224,-194.05538490618227 385.06260650449474,-232.86646188741872"></path><path class="link" d="M243.77477726492185,-174.85381885860468C304.7184715811523,-218.56727357325585 333.60734973166507,-171.2633533626343 400.32881967799807,-205.51602403516117"></path><path class="link" d="M323.0069069700244,-313.31539708360646C376.84139146502844,-365.53462993087425 376.84139146502844,-365.53462993087425 430.6758759600325,-417.753862778142"></path><path class="link" d="M367.93078170683697,-259.0886718337872C429.25257865797647,-302.2701171394184 412.8917428920868,-324.261327715062 471.87627759095636,-370.58437453149946"></path><path class="link" d="M367.93078170683697,-259.0886718337872C429.25257865797647,-302.2701171394184 429.25257865797647,-302.2701171394184 490.574375609116,-345.4515624450496"></path><path class="link" d="M367.93078170683697,-259.0886718337872C429.25257865797647,-302.2701171394184 444.44337072642924,-279.45498781973777 507.9352808302049,-319.3771289368432"></path><path class="link" d="M292.05776525958515,-68.57303953870692C365.07220657448147,-85.71629942338365 354.1482931256055,-123.30444629542029 424.9779517507266,-147.96533555450435"></path><path class="link" d="M292.05776525958515,-68.57303953870692C365.07220657448147,-85.71629942338365 361.86787222863404,-98.36992959599478 434.2414466743609,-118.04391551519372"></path><path class="link" d="M292.05776525958515,-68.57303953870692C365.07220657448147,-85.71629942338365 367.83421718886655,-72.9588148550521 441.40106062663983,-87.55057782606251"></path><path class="link" d="M292.05776525958515,-68.57303953870692C365.07220657448147,-85.71629942338365 372.01842132379596,-47.19421782115527 446.42210558855516,-56.63306138538632"></path><path class="link" d="M434.2414466743609,-118.04391551519372C506.6150211200877,-137.71790143439267 494.28657993654843,-176.9343858457992 564.8989484989124,-202.21072668091335"></path><path class="link" d="M434.2414466743609,-118.04391551519372C506.6150211200877,-137.71790143439267 502.84732680121766,-150.89587777295117 574.6826592013916,-172.4524317405156"></path><path class="link" d="M434.2414466743609,-118.04391551519372C506.6150211200877,-137.71790143439267 510.03742762961565,-124.44606227986714 582.8999172909893,-142.22407117699103"></path><path class="link" d="M434.2414466743609,-118.04391551519372C506.6150211200877,-137.71790143439267 515.8372838623476,-97.65703547372212 589.5283244141115,-111.6080405413967"></path><path class="link" d="M111.45716492201987,100.38575789197223C167.1857473830298,150.57863683795836 222.24517097072876,35.10105383306229 296.32689462763835,46.80140511074972"></path><path class="link" d="M111.45716492201987,100.38575789197223C167.1857473830298,150.57863683795836 176.95360409660864,138.9691404493123 235.93813879547818,185.29218726574973"></path><path class="link" d="M111.45716492201987,100.38575789197223C167.1857473830298,150.57863683795836 108.80614584193735,196.94218092380072 145.07486112258312,262.58957456506766"></path><path class="link" d="M111.45716492201987,100.38575789197223C167.1857473830298,150.57863683795836 58.07665841428463,217.37548561746908 77.4355445523795,289.8339808232921"></path><path class="link" d="M296.32689462763835,46.80140511074972C370.4086182845479,58.50175638843715 374.9680505810101,4.895001887338634 449.96166069721215,5.874002264806362"></path><path class="link" d="M296.32689462763835,46.80140511074972C370.4086182845479,58.50175638843715 369.6134168230091,63.33184115767144 443.53610018761094,75.99820938920573"></path><path class="link" d="M296.32689462763835,46.80140511074972C370.4086182845479,58.50175638843715 358.2250965425314,110.90437415672136 429.87011585103767,133.08524898806564"></path><path class="link" d="M449.96166069721215,5.874002264806362C524.9552708134141,6.853002642274088 524.5974830497173,-20.55433720414063 599.5399806282484,-23.490671090446433"></path><path class="link" d="M449.96166069721215,5.874002264806362C524.9552708134141,6.853002642274088 524.9552708134141,6.853002642274088 599.9488809296162,7.832003019741815"></path><path class="link" d="M449.96166069721215,5.874002264806362C524.9552708134141,6.853002642274088 523.8821513756403,34.24166278133497 598.7224587150175,39.13332889295425"></path><path class="link" d="M443.53610018761094,75.99820938920573C517.4587835522127,88.66457762074002 517.4587835522127,88.66457762074002 591.3814669168146,101.3309458522743"></path><path class="link" d="M429.87011585103767,133.08524898806564C501.51513515954395,155.2661238194099 505.3973663419926,142.12143432493815 577.5969901051344,162.42449637135786"></path><path class="link" d="M429.87011585103767,133.08524898806564C501.51513515954395,155.2661238194099 497.29109203873566,168.30499035655984 568.3326766156979,192.34856040749696"></path><path class="link" d="M235.93813879547818,185.29218726574973C294.92267349434775,231.61523408218716 332.1043214142558,174.1600404742048 398.525185697107,208.99204856904578"></path><path class="link" d="M235.93813879547818,185.29218726574973C294.92267349434775,231.61523408218716 294.92267349434775,231.61523408218716 353.9072081932173,277.9382808986246"></path><path class="link" d="M235.93813879547818,185.29218726574973C294.92267349434775,231.61523408218716 247.91850305802785,281.35638581959824 297.5022036696334,337.6276629835179"></path><path class="link" d="M398.525185697107,208.99204856904578C464.94604997995816,243.82405666388675 477.03783099449106,219.22570059204142 545.1860925651326,250.5436578194759"></path><path class="link" d="M398.525185697107,208.99204856904578C464.94604997995816,243.82405666388675 464.94604997995816,243.82405666388675 531.3669142628094,278.6560647587277"></path><path class="link" d="M398.525185697107,208.99204856904578C464.94604997995816,243.82405666388675 451.58693308330174,267.75780449581214 516.099352095202,306.0089194237853"></path><path class="link" d="M353.9072081932173,277.9382808986246C412.8917428920868,324.261327715062 421.21570236091577,313.37251328825954 481.3893741267609,358.14001518658233"></path><path class="link" d="M353.9072081932173,277.9382808986246C412.8917428920868,324.261327715062 404.2863735174017,334.9291390550365 462.0415697341734,382.7761589200417"></path><path class="link" d="M297.5022036696334,337.6276629835179C347.085904281239,393.89894014743754 367.1708903467738,375.2473014985683 419.6238746820272,428.85405885550665"></path><path class="link" d="M297.5022036696334,337.6276629835179C347.085904281239,393.89894014743754 347.085904281239,393.89894014743754 396.6696048928446,450.17021731135725"></path><path class="link" d="M297.5022036696334,337.6276629835179C347.085904281239,393.89894014743754 326.05484195439675,411.47690097755594 372.6341050907391,470.25931540292106"></path><path class="link" d="M145.07486112258312,262.58957456506766C181.3435764032289,328.23696820633455 192.65730358535222,321.72684590382164 231.18876430242267,386.072215084586"></path><path class="link" d="M145.07486112258312,262.58957456506766C181.3435764032289,328.23696820633455 169.81013222828358,334.3493965788077 203.77215867394028,401.21927589456925"></path><path class="link" d="M231.18876430242267,386.072215084586C269.7202250194931,450.41758426535034 281.3862143805003,443.22319248501776 321.58424500628604,506.5407914114489"></path><path class="link" d="M231.18876430242267,386.072215084586C269.7202250194931,450.41758426535034 257.87040552761744,457.3049900810422 294.7090348887057,522.6342743783339"></path><path class="link" d="M77.4355445523795,289.8339808232921C96.79443069047439,362.2924760291151 121.76230095175633,354.681465637738 146.1147611421076,425.6177587652856"></path><path class="link" d="M77.4355445523795,289.8339808232921C96.79443069047439,362.2924760291151 96.79443069047439,362.2924760291151 116.15331682856926,434.75097123493816"></path><path class="link" d="M77.4355445523795,289.8339808232921C96.79443069047439,362.2924760291151 71.35759561152629,368.1481950907024 85.62911473383156,441.77783410884285"></path><path class="link" d="M146.1147611421076,425.6177587652856C170.46722133245888,496.5540518928332 170.46722133245888,496.5540518928332 194.81968152281013,567.4903450203808"></path><path class="link" d="M-43.737842848184236,143.48170999464546C-65.60676427227635,215.22256499196817 -3.9159150096838324,224.96592099612982 -5.221220012911776,299.9545613281731"></path><path class="link" d="M-43.737842848184236,143.48170999464546C-65.60676427227635,215.22256499196817 -65.60676427227635,215.22256499196817 -87.47568569636847,286.9634199892909"></path><path class="link" d="M-43.737842848184236,143.48170999464546C-65.60676427227635,215.22256499196817 -122.24256359591759,188.89615042530127 -162.99008479455676,251.8615339004017"></path><path class="link" d="M-5.221220012911776,299.9545613281731C-6.526525016139721,374.9432016602164 19.571667470557745,374.4889181703805 23.486000964669294,449.38670180445655"></path><path class="link" d="M-5.221220012911776,299.9545613281731C-6.526525016139721,374.9432016602164 -6.526525016139721,374.9432016602164 -7.831830019367665,449.93184199225965"></path><path class="link" d="M-5.221220012911776,299.9545613281731C-6.526525016139721,374.9432016602164 -32.59309677226032,373.58090160337974 -39.11171612671238,448.29708192405565"></path><path class="link" d="M-87.47568569636847,286.9634199892909C-109.3446071204606,358.70427498661365 -84.12697753277043,365.4417212787844 -100.95237303932451,438.5300655345413"></path><path class="link" d="M-87.47568569636847,286.9634199892909C-109.3446071204606,358.70427498661365 -109.3446071204606,358.70427498661365 -131.2135285445527,430.44512998393634"></path><path class="link" d="M-87.47568569636847,286.9634199892909C-109.3446071204606,358.70427498661365 -134.03246683011923,350.2289220430446 -160.83896019614306,420.27470645165346"></path><path class="link" d="M-131.2135285445527,430.44512998393634C-153.08244996864482,502.1859849812591 -153.08244996864482,502.1859849812591 -174.95137139273695,573.9268399785818"></path><path class="link" d="M-162.99008479455676,251.8615339004017C-203.73760599319598,314.82691737550215 -181.34357640322858,328.2369682063347 -217.6122916838743,393.88436184760167"></path><path class="link" d="M-162.99008479455676,251.8615339004017C-203.73760599319598,314.82691737550215 -203.73760599319598,314.82691737550215 -244.48512719183518,377.79230085060254"></path><path class="link" d="M-162.99008479455676,251.8615339004017C-203.73760599319598,314.82691737550215 -225.14453572044584,299.8915437874581 -270.173442864535,359.8698525449497"></path><path class="link" d="M-270.173442864535,359.8698525449497C-315.2023500086242,419.8481613024413 -315.2023500086242,419.8481613024413 -360.23125715271334,479.82647005993294"></path><path class="link" d="M-143.94899562477806,42.174478759287936C-215.92349343716708,63.261718138931904 -186.74002205975052,125.51160966669134 -248.98669607966738,167.34881288892177"></path><path class="link" d="M-143.94899562477806,42.174478759287936C-215.92349343716708,63.261718138931904 -206.63451221016305,89.03470314247126 -275.51268294688407,118.71293752329501"></path><path class="link" d="M-143.94899562477806,42.174478759287936C-215.92349343716708,63.261718138931904 -219.48259019499275,49.52163770814602 -292.64345359332367,66.02885027752802"></path><path class="link" d="M-143.94899562477806,42.174478759287936C-215.92349343716708,63.261718138931904 -224.94675231257727,-4.894754746052895 -299.9290030834364,-6.526339661403859"></path><path class="link" d="M-248.98669607966738,167.34881288892177C-311.2333700995842,209.18601611115224 -264.5875179571037,265.7413128237672 -317.5050215485245,318.88957538852065"></path><path class="link" d="M-248.98669607966738,167.34881288892177C-311.2333700995842,209.18601611115224 -282.4324709286472,246.69191183567176 -338.9189651143766,296.03029420280615"></path><path class="link" d="M-248.98669607966738,167.34881288892177C-311.2333700995842,209.18601611115224 -322.56209505950125,191.25557463986584 -387.0745140714015,229.50668956783903"></path><path class="link" d="M-248.98669607966738,167.34881288892177C-311.2333700995842,209.18601611115224 -335.0851131125906,168.35369603998117 -402.10213573510873,202.02443524797738"></path><path class="link" d="M-248.98669607966738,167.34881288892177C-311.2333700995842,209.18601611115224 -345.9846583289409,144.63615108611683 -415.1815899947291,173.56338130334018"></path><path class="link" d="M-338.9189651143766,296.03029420280615C-395.40545930010603,345.3686765699405 -367.17089034677394,375.24730149856816 -419.62387468202735,428.8540588555065"></path><path class="link" d="M-338.9189651143766,296.03029420280615C-395.40545930010603,345.3686765699405 -386.25505310339395,355.5728251035143 -441.4343464038788,406.36894297544484"></path><path class="link" d="M-338.9189651143766,296.03029420280615C-395.40545930010603,345.3686765699405 -404.28637351740167,334.92913905503656 -462.0415697341733,382.7761589200418"></path><path class="link" d="M-338.9189651143766,296.03029420280615C-395.40545930010603,345.3686765699405 -421.2157023609159,313.3725132882594 -481.389374126761,358.14001518658216"></path><path class="link" d="M-387.0745140714015,229.50668956783903C-451.58693308330174,267.7578044958122 -451.58693308330174,267.7578044958122 -516.099352095202,306.00891942378536"></path><path class="link" d="M-415.1815899947291,173.56338130334018C-484.37852166051726,202.49061152056356 -484.37852166051726,202.49061152056356 -553.5754533263055,231.41784173778692"></path><path class="link" d="M-292.64345359332367,66.02885027752802C-365.80431699165456,82.53606284691003 -362.7102204635417,95.21709915392812 -435.25226455625,114.26051898471374"></path><path class="link" d="M-292.64345359332367,66.02885027752802C-365.80431699165456,82.53606284691003 -368.4552027588197,69.7550253383729 -442.1462433105837,83.70603040604747"></path><path class="link" d="M-299.9290030834364,-6.526339661403859C-374.91125385429547,-8.157924576754825 -374.5705337107835,17.94199753703023 -449.4846404529402,21.530397044436278"></path><path class="link" d="M-299.9290030834364,-6.526339661403859C-374.91125385429547,-8.157924576754825 -374.91125385429547,-8.157924576754825 -449.89350462515455,-9.78950949210579"></path><path class="link" d="M-299.9290030834364,-6.526339661403859C-374.91125385429547,-8.157924576754825 -373.43554523686856,-34.21832189986356 -448.1226542842423,-41.06198627983627"></path><path class="link" d="M-137.88515236226115,-59.05662332064055C-206.82772854339174,-88.58493498096082 -219.04332394468892,-51.429779654029964 -292.0577652595852,-68.57303953870662"></path><path class="link" d="M-137.88515236226115,-59.05662332064055C-206.82772854339174,-88.58493498096082 -212.48897587536334,-73.9826677772521 -283.31863450048445,-98.64355703633613"></path><path class="link" d="M-137.88515236226115,-59.05662332064055C-206.82772854339174,-88.58493498096082 -201.9224997853428,-99.2587733172148 -269.2299997137904,-132.34503108961974"></path><path class="link" d="M-137.88515236226115,-59.05662332064055C-206.82772854339174,-88.58493498096082 -188.36245760906885,-123.06333557754616 -251.14994347875847,-164.0844474367282"></path><path class="link" d="M-283.31863450048445,-98.64355703633613C-354.14829312560556,-123.30444629542018 -358.2250965425315,-110.90437415672109 -429.8701158510378,-133.0852489880653"></path><path class="link" d="M-283.31863450048445,-98.64355703633613C-354.14829312560556,-123.30444629542018 -349.6424014579575,-135.55512200840107 -419.57088174954896,-162.66614641008127"></path><path class="link" d="M-251.14994347875847,-164.0844474367282C-313.93742934844806,-205.10555929591027 -327.44479463987534,-182.77009181824545 -392.93375356785043,-219.32411018189455"></path><path class="link" d="M-251.14994347875847,-164.0844474367282C-313.93742934844806,-205.10555929591027 -313.93742934844806,-205.10555929591027 -376.7249152181377,-246.1266711550923"></path><path class="link" d="M-251.14994347875847,-164.0844474367282C-313.93742934844806,-205.10555929591027 -298.90905083071436,-226.447299236448 -358.6908609968572,-271.7367590837376"></path><path class="link" d="M-59.05662332064059,-137.88515236226115C-88.58493498096088,-206.82772854339171 -145.79052447501255,-171.37713667027106 -194.3873659666834,-228.50284889369473"></path><path class="link" d="M-59.05662332064059,-137.88515236226115C-88.58493498096088,-206.82772854339171 -105.36207096467227,-198.8060210407003 -140.4827612862297,-265.07469472093373"></path><path class="link" d="M-59.05662332064059,-137.88515236226115C-88.58493498096088,-206.82772854339171 -69.34257520339278,-214.04814239829744 -92.45676693785704,-285.3975231977299"></path><path class="link" d="M-59.05662332064059,-137.88515236226115C-88.58493498096088,-206.82772854339171 -23.453992249086326,-223.77423946375018 -31.271989665448434,-298.36565261833357"></path><path class="link" d="M-194.3873659666834,-228.50284889369473C-242.98420745835426,-285.6285611171184 -264.58751795710356,-265.7413128237674 -317.50502154852427,-318.8895753885209"></path><path class="link" d="M-194.3873659666834,-228.50284889369473C-242.98420745835426,-285.6285611171184 -219.89110239111795,-303.76455206165656 -263.86932286934154,-364.5174624739879"></path><path class="link" d="M-317.50502154852427,-318.8895753885209C-370.422525139945,-372.03783795327433 -389.33475081729404,-352.1980292478019 -444.9540009340503,-402.5120334260593"></path><path class="link" d="M-317.50502154852427,-318.8895753885209C-370.422525139945,-372.03783795327433 -370.422525139945,-372.03783795327433 -423.3400287313657,-425.1861005180278"></path><path class="link" d="M-317.50502154852427,-318.8895753885209C-370.422525139945,-372.03783795327433 -350.5006129458986,-390.86355717123257 -400.5721290810269,-446.7012081956944"></path><path class="link" d="M-263.86932286934154,-364.5174624739879C-307.84754334756514,-425.2703728863192 -307.84754334756514,-425.2703728863192 -351.8257638257887,-486.02328329865054"></path><path class="link" d="M-140.4827612862297,-265.07469472093373C-175.60345160778712,-331.34336840116714 -175.60345160778712,-331.34336840116714 -210.72414192934454,-397.6120420814006"></path><path class="link" d="M-92.45676693785704,-285.3975231977299C-115.5709586723213,-356.7469039971624 -127.91675844963194,-352.5085855801792 -153.50011013955833,-423.01030269621504"></path><path class="link" d="M-92.45676693785704,-285.3975231977299C-115.5709586723213,-356.7469039971624 -103.0851324104738,-360.5529856705046 -123.70215889256858,-432.6635828046055"></path><path class="link" d="M-31.271989665448434,-298.36565261833357C-39.08998708181054,-372.95706577291696 -52.04627927893,-371.37068383654037 -62.455535134715994,-445.6448206038484"></path><path class="link" d="M-31.271989665448434,-298.36565261833357C-39.08998708181054,-372.95706577291696 -26.08633321585622,-374.09157063391757 -31.303599859027468,-448.90988476070106"></path><g class="decade"><circle r="0"></circle><text dy=".31em" transform="translate(-10,-0)">1</text></g><g class="decade"><circle r="150"></circle><text dy=".31em" transform="translate(-10,-150)">2</text></g><g class="decade"><circle r="300"></circle><text dy=".31em" transform="translate(-10,-300)">3</text></g><g class="decade"><circle r="450"></circle><text dy=".31em" transform="translate(-10,-450)">4</text></g><g class="decade"><circle r="600"></circle><text dy=".31em" transform="translate(-10,-600)">5</text></g><text class="title" transform="translate(-50,20)"></text><g class="node" transform="rotate(99.09972299168976)translate(0)"><circle r="4.5" stroke="#1f77b4"></circle><text dy=".31em" text-anchor="end" transform="rotate(180)translate(-8)">André &amp; Agnès Fauchille</text></g><g class="node" transform="rotate(-48.614958448753455)translate(150)"><circle r="4.5" stroke="#ff7f0e"></circle><text dy=".31em" text-anchor="start" transform="translate(8)">Jannick &amp; Jacques Bricout</text></g><g class="node" transform="rotate(-84.01662049861496)translate(300)"><circle r="4.5" stroke="#2ca02c"></circle><text dy=".31em" text-anchor="start" transform="translate(8)">Pascale &amp; Laurent</text></g><g class="node" transform="rotate(-84.01662049861496)translate(450)"><circle r="4.5" stroke="#d62728"></circle><text dy=".31em" text-anchor="start" transform="translate(8)">1 fille</text></g><g class="node" transform="rotate(-74.04432132963989)translate(300)"><circle r="4.5" stroke="#2ca02c"></circle><text dy=".31em" text-anchor="start" transform="translate(8)">Perrine &amp; Lakesh</text></g><g class="node" transform="rotate(-76.0387811634349)translate(450)"><circle r="4.5" stroke="#d62728"></circle><text dy=".31em" text-anchor="start" transform="translate(8)">Louis</text></g><g class="node" transform="rotate(-72.04986149584488)translate(450)"><circle r="4.5" stroke="#d62728"></circle><text dy=".31em" text-anchor="start" transform="translate(8)">Gabriel</text></g><g class="node" transform="rotate(-58.088642659279785)translate(300)"><circle r="4.5" stroke="#2ca02c"></circle><text dy=".31em" text-anchor="start" transform="translate(8)">Dominique &amp; Pierre</text></g><g class="node" transform="rotate(-64.07202216066483)translate(450)"><circle r="4.5" stroke="#d62728"></circle><text dy=".31em" text-anchor="start" transform="translate(8)">Guillaume</text></g><g class="node" transform="rotate(-60.08310249307479)translate(450)"><circle r="4.5" stroke="#d62728"></circle><text dy=".31em" text-anchor="start" transform="translate(8)">Alexis &amp; Patience</text></g><g class="node" transform="rotate(-60.08310249307479)translate(600)"><circle r="4.5" stroke="#9467bd"></circle><text dy=".31em" text-anchor="start" transform="translate(8)">Basile</text></g><g class="node" transform="rotate(-56.09418282548478)translate(450)"><circle r="4.5" stroke="#d62728"></circle><text dy=".31em" text-anchor="start" transform="translate(8)">Camille &amp; Olivier</text></g><g class="node" transform="rotate(-52.10526315789475)translate(450)"><circle r="4.5" stroke="#d62728"></circle><text dy=".31em" text-anchor="start" transform="translate(8)">Dimitri</text></g><g class="node" transform="rotate(-35.650969529085884)translate(300)"><circle r="4.5" stroke="#2ca02c"></circle><text dy=".31em" text-anchor="start" transform="translate(8)">Jacky &amp; Anne</text></g><g class="node" transform="rotate(-44.127423822714675)translate(450)"><circle r="4.5" stroke="#d62728"></circle><text dy=".31em" text-anchor="start" transform="translate(8)">Lola</text></g><g class="node" transform="rotate(-44.127423822714675)translate(600)"><circle r="4.5" stroke="#9467bd"></circle><text dy=".31em" text-anchor="start" transform="translate(8)">2 enfants</text></g><g class="node" transform="rotate(-35.152354570637115)translate(450)"><circle r="4.5" stroke="#d62728"></circle><text dy=".31em" text-anchor="start" transform="translate(8)">Alex</text></g><g class="node" transform="rotate(-38.14404432132964)translate(600)"><circle r="4.5" stroke="#9467bd"></circle><text dy=".31em" text-anchor="start" transform="translate(8)">1 fils</text></g><g class="node" transform="rotate(-35.152354570637115)translate(600)"><circle r="4.5" stroke="#9467bd"></circle><text dy=".31em" text-anchor="start" transform="translate(8)">1 fille</text></g><g class="node" transform="rotate(-32.16066481994459)translate(600)"><circle r="4.5" stroke="#9467bd"></circle><text dy=".31em" text-anchor="start" transform="translate(8)">petits-enfants</text></g><g class="node" transform="rotate(-31.163434903047083)translate(450)"><circle r="4.5" stroke="#d62728"></circle><text dy=".31em" text-anchor="start" transform="translate(8)">Hugo</text></g><g class="node" transform="rotate(-27.174515235457065)translate(450)"><circle r="4.5" stroke="#d62728"></circle><text dy=".31em" text-anchor="start" transform="translate(8)">Margot</text></g><g class="node" transform="rotate(-24.432132963988934)translate(300)"><circle r="4.5" stroke="#2ca02c"></circle><text dy=".31em" text-anchor="start" transform="translate(8)">Arnaud</text></g><g class="node" transform="rotate(-13.213296398891984)translate(300)"><circle r="4.5" stroke="#2ca02c"></circle><text dy=".31em" text-anchor="start" transform="translate(8)">Patrice &amp; Claire</text></g><g class="node" transform="rotate(-19.196675900277015)translate(450)"><circle r="4.5" stroke="#d62728"></circle><text dy=".31em" text-anchor="start" transform="translate(8)">Gaspard &amp; Marie</text></g><g class="node" transform="rotate(-15.20775623268699)translate(450)"><circle r="4.5" stroke="#d62728"></circle><text dy=".31em" text-anchor="start" transform="translate(8)">Marie &amp; Jean</text></g><g class="node" transform="rotate(-19.69529085872577)translate(600)"><circle r="4.5" stroke="#9467bd"></circle><text dy=".31em" text-anchor="start" transform="translate(8)">Isaure</text></g><g class="node" transform="rotate(-16.70360110803324)translate(600)"><circle r="4.5" stroke="#9467bd"></circle><text dy=".31em" text-anchor="start" transform="translate(8)">Eugène</text></g><g class="node" transform="rotate(-13.711911357340725)translate(600)"><circle r="4.5" stroke="#9467bd"></circle><text dy=".31em" text-anchor="start" transform="translate(8)">Auguste</text></g><g class="node" transform="rotate(-10.72022160664821)translate(600)"><circle r="4.5" stroke="#9467bd"></circle><text dy=".31em" text-anchor="start" transform="translate(8)">Lucien</text></g><g class="node" transform="rotate(-11.218836565096964)translate(450)"><circle r="4.5" stroke="#d62728"></circle><text dy=".31em" text-anchor="start" transform="translate(8)">Pauline &amp; Martin</text></g><g class="node" transform="rotate(-7.229916897506939)translate(450)"><circle r="4.5" stroke="#d62728"></circle><text dy=".31em" text-anchor="start" transform="translate(8)">Nicolas &amp; Emilie</text></g><g class="node" transform="rotate(42.00831024930747)translate(150)"><circle r="4.5" stroke="#ff7f0e"></circle><text dy=".31em" text-anchor="start" transform="translate(8)">Francis &amp; Claudie Fauchille </text></g><g class="node" transform="rotate(8.97506925207756)translate(300)"><circle r="4.5" stroke="#2ca02c"></circle><text dy=".31em" text-anchor="start" transform="translate(8)">Véronique &amp; Jean-Louis Brabant</text></g><g class="node" transform="rotate(0.7479224376731395)translate(450)"><circle r="4.5" stroke="#d62728"></circle><text dy=".31em" text-anchor="start" transform="translate(8)">Augustin &amp; Olivia</text></g><g class="node" transform="rotate(-2.24376731301939)translate(600)"><circle r="4.5" stroke="#9467bd"></circle><text dy=".31em" text-anchor="start" transform="translate(8)">Manon</text></g><g class="node" transform="rotate(0.7479224376731395)translate(600)"><circle r="4.5" stroke="#9467bd"></circle><text dy=".31em" text-anchor="start" transform="translate(8)">Timothée</text></g><g class="node" transform="rotate(3.739612188365655)translate(600)"><circle r="4.5" stroke="#9467bd"></circle><text dy=".31em" text-anchor="start" transform="translate(8)">Jeanne</text></g><g class="node" transform="rotate(9.7229916897507)translate(450)"><circle r="4.5" stroke="#d62728"></circle><text dy=".31em" text-anchor="start" transform="translate(8)">Alexandre &amp; Justine</text></g><g class="node" transform="rotate(9.7229916897507)translate(600)"><circle r="4.5" stroke="#9467bd"></circle><text dy=".31em" text-anchor="start" transform="translate(8)">Basile</text></g><g class="node" transform="rotate(17.202216066481995)translate(450)"><circle r="4.5" stroke="#d62728"></circle><text dy=".31em" text-anchor="start" transform="translate(8)">Adrien &amp; Juliette</text></g><g class="node" transform="rotate(15.70637119113573)translate(600)"><circle r="4.5" stroke="#9467bd"></circle><text dy=".31em" text-anchor="start" transform="translate(8)">Joseph</text></g><g class="node" transform="rotate(18.69806094182826)translate(600)"><circle r="4.5" stroke="#9467bd"></circle><text dy=".31em" text-anchor="start" transform="translate(8)">Igor</text></g><g class="node" transform="rotate(38.14404432132963)translate(300)"><circle r="4.5" stroke="#2ca02c"></circle><text dy=".31em" text-anchor="start" transform="translate(8)">Caroline &amp; Manu Toulemonde</text></g><g class="node" transform="rotate(27.67313019390582)translate(450)"><circle r="4.5" stroke="#d62728"></circle><text dy=".31em" text-anchor="start" transform="translate(8)">Mathieu &amp; Constance</text></g><g class="node" transform="rotate(24.681440443213305)translate(600)"><circle r="4.5" stroke="#9467bd"></circle><text dy=".31em" text-anchor="start" transform="translate(8)">Gustave</text></g><g class="node" transform="rotate(27.67313019390582)translate(600)"><circle r="4.5" stroke="#9467bd"></circle><text dy=".31em" text-anchor="start" transform="translate(8)">Germain</text></g><g class="node" transform="rotate(30.664819944598335)translate(600)"><circle r="4.5" stroke="#9467bd"></circle><text dy=".31em" text-anchor="start" transform="translate(8)">Max</text></g><g class="node" transform="rotate(38.14404432132963)translate(450)"><circle r="4.5" stroke="#d62728"></circle><text dy=".31em" text-anchor="start" transform="translate(8)">Martin &amp; Anne</text></g><g class="node" transform="rotate(36.64819944598338)translate(600)"><circle r="4.5" stroke="#9467bd"></circle><text dy=".31em" text-anchor="start" transform="translate(8)">Mailleul</text></g><g class="node" transform="rotate(39.63988919667591)translate(600)"><circle r="4.5" stroke="#9467bd"></circle><text dy=".31em" text-anchor="start" transform="translate(8)">Brieu</text></g><g class="node" transform="rotate(48.61495844875347)translate(450)"><circle r="4.5" stroke="#d62728"></circle><text dy=".31em" text-anchor="start" transform="translate(8)">Alix &amp; Maxence</text></g><g class="node" transform="rotate(45.62326869806094)translate(600)"><circle r="4.5" stroke="#9467bd"></circle><text dy=".31em" text-anchor="start" transform="translate(8)">Maho</text></g><g class="node" transform="rotate(48.61495844875347)translate(600)"><circle r="4.5" stroke="#9467bd"></circle><text dy=".31em" text-anchor="start" transform="translate(8)">Tom</text></g><g class="node" transform="rotate(51.60664819944597)translate(600)"><circle r="4.5" stroke="#9467bd"></circle><text dy=".31em" text-anchor="start" transform="translate(8)">Bosco</text></g><g class="node" transform="rotate(61.0803324099723)translate(300)"><circle r="4.5" stroke="#2ca02c"></circle><text dy=".31em" text-anchor="start" transform="translate(8)">André Eric &amp; Nathalie</text></g><g class="node" transform="rotate(59.08587257617728)translate(450)"><circle r="4.5" stroke="#d62728"></circle><text dy=".31em" text-anchor="start" transform="translate(8)">Lucie &amp; Tanguy</text></g><g class="node" transform="rotate(57.59002770083103)translate(600)"><circle r="4.5" stroke="#9467bd"></circle><text dy=".31em" text-anchor="start" transform="translate(8)">Wladimir</text></g><g class="node" transform="rotate(60.58171745152356)translate(600)"><circle r="4.5" stroke="#9467bd"></circle><text dy=".31em" text-anchor="start" transform="translate(8)">Victoria</text></g><g class="node" transform="rotate(63.07479224376732)translate(450)"><circle r="4.5" stroke="#d62728"></circle><text dy=".31em" text-anchor="start" transform="translate(8)">Tom</text></g><g class="node" transform="rotate(75.04155124653741)translate(300)"><circle r="4.5" stroke="#2ca02c"></circle><text dy=".31em" text-anchor="start" transform="translate(8)">Hugues &amp; Constance</text></g><g class="node" transform="rotate(71.05263157894737)translate(450)"><circle r="4.5" stroke="#d62728"></circle><text dy=".31em" text-anchor="start" transform="translate(8)">Stanislas &amp; Aliénor</text></g><g class="node" transform="rotate(71.05263157894737)translate(600)"><circle r="4.5" stroke="#9467bd"></circle><text dy=".31em" text-anchor="start" transform="translate(8)">Alexis</text></g><g class="node" transform="rotate(75.04155124653741)translate(450)"><circle r="4.5" stroke="#d62728"></circle><text dy=".31em" text-anchor="start" transform="translate(8)">Mariane &amp; Geoffroy</text></g><g class="node" transform="rotate(79.03047091412742)translate(450)"><circle r="4.5" stroke="#d62728"></circle><text dy=".31em" text-anchor="start" transform="translate(8)">Agathe</text></g><g class="node" transform="rotate(63.65650969529085)translate(150)"><circle r="4.5" stroke="#ff7f0e"></circle><text dy=".31em" text-anchor="start" transform="translate(8)">Marc</text></g><g class="node" transform="rotate(85.30470914127423)translate(150)"><circle r="4.5" stroke="#ff7f0e"></circle><text dy=".31em" text-anchor="start" transform="translate(8)">Marie</text></g><g class="node" transform="rotate(106.95290858725758)translate(150)"><circle r="4.5" stroke="#ff7f0e"></circle><text dy=".31em" text-anchor="end" transform="rotate(180)translate(-8)">Nadine &amp; Manu Watine</text></g><g class="node" transform="rotate(90.99722991689751)translate(300)"><circle r="4.5" stroke="#2ca02c"></circle><text dy=".31em" text-anchor="end" transform="rotate(180)translate(-8)">Emmanuel &amp; Pia</text></g><g class="node" transform="rotate(87.00831024930747)translate(450)"><circle r="4.5" stroke="#d62728"></circle><text dy=".31em" text-anchor="start" transform="translate(8)">1 aîné</text></g><g class="node" transform="rotate(90.99722991689751)translate(450)"><circle r="4.5" stroke="#d62728"></circle><text dy=".31em" text-anchor="end" transform="rotate(180)translate(-8)">Léa</text></g><g class="node" transform="rotate(94.98614958448752)translate(450)"><circle r="4.5" stroke="#d62728"></circle><text dy=".31em" text-anchor="end" transform="rotate(180)translate(-8)">Rémi</text></g><g class="node" transform="rotate(106.95290858725758)translate(300)"><circle r="4.5" stroke="#2ca02c"></circle><text dy=".31em" text-anchor="end" transform="rotate(180)translate(-8)">Thierry &amp; Murielle</text></g><g class="node" transform="rotate(102.96398891966757)translate(450)"><circle r="4.5" stroke="#d62728"></circle><text dy=".31em" text-anchor="end" transform="rotate(180)translate(-8)">Mattias</text></g><g class="node" transform="rotate(106.95290858725758)translate(450)"><circle r="4.5" stroke="#d62728"></circle><text dy=".31em" text-anchor="end" transform="rotate(180)translate(-8)">Gloria</text></g><g class="node" transform="rotate(106.95290858725758)translate(600)"><circle r="4.5" stroke="#9467bd"></circle><text dy=".31em" text-anchor="end" transform="rotate(180)translate(-8)">4 enfants</text></g><g class="node" transform="rotate(110.94182825484762)translate(450)"><circle r="4.5" stroke="#d62728"></circle><text dy=".31em" text-anchor="end" transform="rotate(180)translate(-8)">Alexandra</text></g><g class="node" transform="rotate(122.90858725761768)translate(300)"><circle r="4.5" stroke="#2ca02c"></circle><text dy=".31em" text-anchor="end" transform="rotate(180)translate(-8)">Karine &amp; Pascal</text></g><g class="node" transform="rotate(118.91966759002767)translate(450)"><circle r="4.5" stroke="#d62728"></circle><text dy=".31em" text-anchor="end" transform="rotate(180)translate(-8)">Arthur &amp; Aude</text></g><g class="node" transform="rotate(122.90858725761768)translate(450)"><circle r="4.5" stroke="#d62728"></circle><text dy=".31em" text-anchor="end" transform="rotate(180)translate(-8)">Louise</text></g><g class="node" transform="rotate(126.89750692520775)translate(450)"><circle r="4.5" stroke="#d62728"></circle><text dy=".31em" text-anchor="end" transform="rotate(180)translate(-8)">Théodore</text></g><g class="node" transform="rotate(126.89750692520775)translate(600)"><circle r="4.5" stroke="#9467bd"></circle><text dy=".31em" text-anchor="end" transform="rotate(180)translate(-8)">2 petits</text></g><g class="node" transform="rotate(163.67036011080333)translate(150)"><circle r="4.5" stroke="#ff7f0e"></circle><text dy=".31em" text-anchor="end" transform="rotate(180)translate(-8)">Colette &amp; Francis Demester</text></g><g class="node" transform="rotate(146.09418282548478)translate(300)"><circle r="4.5" stroke="#2ca02c"></circle><text dy=".31em" text-anchor="end" transform="rotate(180)translate(-8)">Blandine &amp; Godefroy de Noyelle</text></g><g class="node" transform="rotate(134.87534626038783)translate(450)"><circle r="4.5" stroke="#d62728"></circle><text dy=".31em" text-anchor="end" transform="rotate(180)translate(-8)">Marion</text></g><g class="node" transform="rotate(138.86426592797784)translate(450)"><circle r="4.5" stroke="#d62728"></circle><text dy=".31em" text-anchor="end" transform="rotate(180)translate(-8)">Quentin &amp; Elisabeth</text></g><g class="node" transform="rotate(134.37673130193906)translate(600)"><circle r="4.5" stroke="#9467bd"></circle><text dy=".31em" text-anchor="end" transform="rotate(180)translate(-8)">Victoria</text></g><g class="node" transform="rotate(137.36842105263156)translate(600)"><circle r="4.5" stroke="#9467bd"></circle><text dy=".31em" text-anchor="end" transform="rotate(180)translate(-8)">Nathanael</text></g><g class="node" transform="rotate(140.3601108033241)translate(600)"><circle r="4.5" stroke="#9467bd"></circle><text dy=".31em" text-anchor="end" transform="rotate(180)translate(-8)">Céleste</text></g><g class="node" transform="rotate(143.35180055401662)translate(600)"><circle r="4.5" stroke="#9467bd"></circle><text dy=".31em" text-anchor="end" transform="rotate(180)translate(-8)">Marius</text></g><g class="node" transform="rotate(149.33518005540165)translate(450)"><circle r="4.5" stroke="#d62728"></circle><text dy=".31em" text-anchor="end" transform="rotate(180)translate(-8)">Aymeric &amp; Alexandra</text></g><g class="node" transform="rotate(149.33518005540165)translate(600)"><circle r="4.5" stroke="#9467bd"></circle><text dy=".31em" text-anchor="end" transform="rotate(180)translate(-8)">Marin</text></g><g class="node" transform="rotate(153.32409972299172)translate(450)"><circle r="4.5" stroke="#d62728"></circle><text dy=".31em" text-anchor="end" transform="rotate(180)translate(-8)">Solenne &amp; Adam</text></g><g class="node" transform="rotate(157.31301939058173)translate(450)"><circle r="4.5" stroke="#d62728"></circle><text dy=".31em" text-anchor="end" transform="rotate(180)translate(-8)">Clémence &amp; Édouard</text></g><g class="node" transform="rotate(157.31301939058173)translate(600)"><circle r="4.5" stroke="#9467bd"></circle><text dy=".31em" text-anchor="end" transform="rotate(180)translate(-8)">Brune</text></g><g class="node" transform="rotate(156.6897506925208)translate(300)"><circle r="4.5" stroke="#2ca02c"></circle><text dy=".31em" text-anchor="end" transform="rotate(180)translate(-8)">Fanny &amp; Christophe</text></g><g class="node" transform="rotate(167.2853185595568)translate(300)"><circle r="4.5" stroke="#2ca02c"></circle><text dy=".31em" text-anchor="end" transform="rotate(180)translate(-8)">Sophie &amp; Christophe Cany</text></g><g class="node" transform="rotate(165.29085872576178)translate(450)"><circle r="4.5" stroke="#d62728"></circle><text dy=".31em" text-anchor="end" transform="rotate(180)translate(-8)">Juliette</text></g><g class="node" transform="rotate(169.27977839335182)translate(450)"><circle r="4.5" stroke="#d62728"></circle><text dy=".31em" text-anchor="end" transform="rotate(180)translate(-8)">Charlotte</text></g><g class="node" transform="rotate(181.24653739612188)translate(300)"><circle r="4.5" stroke="#2ca02c"></circle><text dy=".31em" text-anchor="end" transform="rotate(180)translate(-8)">Séverine &amp; Fabien Dupré</text></g><g class="node" transform="rotate(177.2576177285319)translate(450)"><circle r="4.5" stroke="#d62728"></circle><text dy=".31em" text-anchor="end" transform="rotate(180)translate(-8)">Cécile</text></g><g class="node" transform="rotate(181.24653739612188)translate(450)"><circle r="4.5" stroke="#d62728"></circle><text dy=".31em" text-anchor="end" transform="rotate(180)translate(-8)">Anaïs</text></g><g class="node" transform="rotate(185.23545706371192)translate(450)"><circle r="4.5" stroke="#d62728"></circle><text dy=".31em" text-anchor="end" transform="rotate(180)translate(-8)">Augustin</text></g><g class="node" transform="rotate(203.18559556786704)translate(150)"><circle r="4.5" stroke="#ff7f0e"></circle><text dy=".31em" text-anchor="end" transform="rotate(180)translate(-8)">Monique &amp; Antoine Lecomte</text></g><g class="node" transform="rotate(193.21329639889194)translate(300)"><circle r="4.5" stroke="#2ca02c"></circle><text dy=".31em" text-anchor="end" transform="rotate(180)translate(-8)">Franck</text></g><g class="node" transform="rotate(199.196675900277)translate(300)"><circle r="4.5" stroke="#2ca02c"></circle><text dy=".31em" text-anchor="end" transform="rotate(180)translate(-8)">Frédéric &amp; Katarzyna</text></g><g class="node" transform="rotate(197.20221606648198)translate(450)"><circle r="4.5" stroke="#d62728"></circle><text dy=".31em" text-anchor="end" transform="rotate(180)translate(-8)">Esteban</text></g><g class="node" transform="rotate(201.19113573407202)translate(450)"><circle r="4.5" stroke="#d62728"></circle><text dy=".31em" text-anchor="end" transform="rotate(180)translate(-8)">Alexis</text></g><g class="node" transform="rotate(206.17728531855954)translate(300)"><circle r="4.5" stroke="#2ca02c"></circle><text dy=".31em" text-anchor="end" transform="rotate(180)translate(-8)">Nathalie &amp; Nigel</text></g><g class="node" transform="rotate(213.15789473684214)translate(300)"><circle r="4.5" stroke="#2ca02c"></circle><text dy=".31em" text-anchor="end" transform="rotate(180)translate(-8)">Cyril &amp; Lucie</text></g><g class="node" transform="rotate(209.16897506925204)translate(450)"><circle r="4.5" stroke="#d62728"></circle><text dy=".31em" text-anchor="end" transform="rotate(180)translate(-8)">Thibault</text></g><g class="node" transform="rotate(213.15789473684214)translate(450)"><circle r="4.5" stroke="#d62728"></circle><text dy=".31em" text-anchor="end" transform="rotate(180)translate(-8)">Mattis</text></g><g class="node" transform="rotate(217.14681440443212)translate(450)"><circle r="4.5" stroke="#d62728"></circle><text dy=".31em" text-anchor="end" transform="rotate(180)translate(-8)">Manon</text></g><g class="node" transform="rotate(246.81440443213296)translate(150)"><circle r="4.5" stroke="#ff7f0e"></circle><text dy=".31em" text-anchor="end" transform="rotate(180)translate(-8)">Christine &amp; Wladimir Narozniak</text></g><g class="node" transform="rotate(229.61218836565098)translate(300)"><circle r="4.5" stroke="#2ca02c"></circle><text dy=".31em" text-anchor="end" transform="rotate(180)translate(-8)">Yuri &amp; Valerie</text></g><g class="node" transform="rotate(225.1246537396122)translate(450)"><circle r="4.5" stroke="#d62728"></circle><text dy=".31em" text-anchor="end" transform="rotate(180)translate(-8)">Basile &amp; Clémence</text></g><g class="node" transform="rotate(222.1329639889197)translate(600)"><circle r="4.5" stroke="#9467bd"></circle><text dy=".31em" text-anchor="end" transform="rotate(180)translate(-8)">Hélène</text></g><g class="node" transform="rotate(225.1246537396122)translate(600)"><circle r="4.5" stroke="#9467bd"></circle><text dy=".31em" text-anchor="end" transform="rotate(180)translate(-8)">Adèle</text></g><g class="node" transform="rotate(228.1163434903047)translate(600)"><circle r="4.5" stroke="#9467bd"></circle><text dy=".31em" text-anchor="end" transform="rotate(180)translate(-8)">+1</text></g><g class="node" transform="rotate(234.09972299168976)translate(450)"><circle r="4.5" stroke="#d62728"></circle><text dy=".31em" text-anchor="end" transform="rotate(180)translate(-8)">Come &amp; Louise</text></g><g class="node" transform="rotate(234.09972299168976)translate(600)"><circle r="4.5" stroke="#9467bd"></circle><text dy=".31em" text-anchor="end" transform="rotate(180)translate(-8)">Erik</text></g><g class="node" transform="rotate(242.07756232686978)translate(300)"><circle r="4.5" stroke="#2ca02c"></circle><text dy=".31em" text-anchor="end" transform="rotate(180)translate(-8)">Damien &amp; Blandine</text></g><g class="node" transform="rotate(242.07756232686978)translate(450)"><circle r="4.5" stroke="#d62728"></circle><text dy=".31em" text-anchor="end" transform="rotate(180)translate(-8)">Pauline</text></g><g class="node" transform="rotate(252.04986149584488)translate(300)"><circle r="4.5" stroke="#2ca02c"></circle><text dy=".31em" text-anchor="end" transform="rotate(180)translate(-8)">Nicolas &amp; Carine</text></g><g class="node" transform="rotate(250.05540166204992)translate(450)"><circle r="4.5" stroke="#d62728"></circle><text dy=".31em" text-anchor="end" transform="rotate(180)translate(-8)">Gaëtan &amp; Eva</text></g><g class="node" transform="rotate(254.0443213296399)translate(450)"><circle r="4.5" stroke="#d62728"></circle><text dy=".31em" text-anchor="end" transform="rotate(180)translate(-8)">Anatole</text></g><g class="node" transform="rotate(264.016620498615)translate(300)"><circle r="4.5" stroke="#2ca02c"></circle><text dy=".31em" text-anchor="end" transform="rotate(180)translate(-8)">Igor &amp; Shirley</text></g><g class="node" transform="rotate(262.02216066482)translate(450)"><circle r="4.5" stroke="#d62728"></circle><text dy=".31em" text-anchor="end" transform="rotate(180)translate(-8)">Chloe</text></g><g class="node" transform="rotate(266.01108033241)translate(450)"><circle r="4.5" stroke="#d62728"></circle><text dy=".31em" text-anchor="end" transform="rotate(180)translate(-8)">Charlotte</text></g></g></svg>